ISO-10303-21;
HEADER;
FILE_DESCRIPTION (( 'STEP AP214' ),
    '1' );
FILE_NAME ('M10 WASHER.STEP',
    '2021-06-13T07:42:17',
    ( '' ),
    ( '' ),
    'SwSTEP 2.0',
    'SolidWorks 2018',
    '' );
FILE_SCHEMA (( 'AUTOMOTIVE_DESIGN' ));
ENDSEC;

DATA;
#1 = DIRECTION ( 'NONE',  ( 0.0000000000000000000, 0.0000000000000000000, 1.000000000000000000 ) ) ;
#2 = TOROIDAL_SURFACE ( 'NONE', #153, 9.799999999999998934, 0.2000000000000000111 ) ;
#3 = ADVANCED_FACE ( 'NONE', ( #112 ), #375, .T. ) ;
#4 = ORIENTED_EDGE ( 'NONE', *, *, #223, .F. ) ;
#5 = CARTESIAN_POINT ( 'NONE',  ( 0.0000000000000000000, 0.0000000000000000000, 0.2000000000000000944 ) ) ;
#6 = DIRECTION ( 'NONE',  ( 0.0000000000000000000, 0.0000000000000000000, 1.000000000000000000 ) ) ;
#7 = EDGE_LOOP ( 'NONE', ( #331, #82, #287, #404 ) ) ;
#8 = EDGE_CURVE ( 'NONE', #412, #417, #32, .T. ) ;
#9 = AXIS2_PLACEMENT_3D ( 'NONE', #268, #270, #209 ) ;
#10 = ORIENTED_EDGE ( 'NONE', *, *, #192, .F. ) ;
#11 = CIRCLE ( 'NONE', #83, 5.250000000000000888 ) ;
#12 = VERTEX_POINT ( 'NONE', #311 ) ;
#13 = DIRECTION ( 'NONE',  ( -0.0000000000000000000, -0.0000000000000000000, -1.000000000000000000 ) ) ;
#14 = AXIS2_PLACEMENT_3D ( 'NONE', #33, #170, #232 ) ;
#15 = ORIENTED_EDGE ( 'NONE', *, *, #279, .F. ) ;
#16 = ORIENTED_EDGE ( 'NONE', *, *, #366, .T. ) ;
#17 = CARTESIAN_POINT ( 'NONE',  ( 0.0000000000000000000, 0.0000000000000000000, 1.800000000000000044 ) ) ;
#18 = FACE_OUTER_BOUND ( 'NONE', #79, .T. ) ;
#19 = DIRECTION ( 'NONE',  ( 1.000000000000000000, 0.0000000000000000000, 0.0000000000000000000 ) ) ;
#20 = SURFACE_STYLE_FILL_AREA ( #322 ) ;
#21 =( NAMED_UNIT ( * ) SI_UNIT ( $, .STERADIAN. ) SOLID_ANGLE_UNIT ( ) );
#22 = CARTESIAN_POINT ( 'NONE',  ( 0.0000000000000000000, 0.0000000000000000000, 0.2000000000000000944 ) ) ;
#23 = DIRECTION ( 'NONE',  ( 1.000000000000000000, 0.0000000000000000000, 0.0000000000000000000 ) ) ;
#24 = DIRECTION ( 'NONE',  ( -1.000000000000000000, 1.224646799147353454E-16, 0.0000000000000000000 ) ) ;
#25 = ORIENTED_EDGE ( 'NONE', *, *, #369, .F. ) ;
#26 = AXIS2_PLACEMENT_3D ( 'NONE', #219, #185, #372 ) ;
#27 = ORIENTED_EDGE ( 'NONE', *, *, #220, .T. ) ;
#28 = AXIS2_PLACEMENT_3D ( 'NONE', #163, #383, #289 ) ;
#29 = CARTESIAN_POINT ( 'NONE',  ( 0.0000000000000000000, 0.0000000000000000000, 2.000000000000000000 ) ) ;
#30 = ORIENTED_EDGE ( 'NONE', *, *, #296, .T. ) ;
#31 = TOROIDAL_SURFACE ( 'NONE', #401, 5.450000000000001066, 0.2000000000000000111 ) ;
#32 = CIRCLE ( 'NONE', #26, 9.799999999999998934 ) ;
#33 = CARTESIAN_POINT ( 'NONE',  ( -9.799999999999998934, 1.200153863164406148E-15, 0.2000000000000000944 ) ) ;
#34 = DIRECTION ( 'NONE',  ( 1.000000000000000000, 0.0000000000000000000, 0.0000000000000000000 ) ) ;
#35 = MANIFOLD_SOLID_BREP ( 'Fillet1', #54 ) ;
#36 = ADVANCED_FACE ( 'NONE', ( #338 ), #332, .T. ) ;
#37 = CARTESIAN_POINT ( 'NONE',  ( 0.0000000000000000000, 0.0000000000000000000, 2.000000000000000000 ) ) ;
#38 = ORIENTED_EDGE ( 'NONE', *, *, #111, .T. ) ;
#39 = AXIS2_PLACEMENT_3D ( 'NONE', #22, #319, #19 ) ;
#40 = ORIENTED_EDGE ( 'NONE', *, *, #88, .F. ) ;
#41 = LINE ( 'NONE', #165, #379 ) ;
#42 = CARTESIAN_POINT ( 'NONE',  ( 0.0000000000000000000, 0.0000000000000000000, 1.800000000000000044 ) ) ;
#43 = AXIS2_PLACEMENT_3D ( 'NONE', #42, #81, #277 ) ;
#44 = AXIS2_PLACEMENT_3D ( 'NONE', #99, #327, #328 ) ;
#45 = ORIENTED_EDGE ( 'NONE', *, *, #203, .F. ) ;
#46 = EDGE_CURVE ( 'NONE', #378, #65, #151, .T. ) ;
#47 = DIRECTION ( 'NONE',  ( 1.000000000000000000, 0.0000000000000000000, -0.0000000000000000000 ) ) ;
#48 = FACE_OUTER_BOUND ( 'NONE', #183, .T. ) ;
#49 = CIRCLE ( 'NONE', #44, 0.1999999999999996503 ) ;
#50 = ORIENTED_EDGE ( 'NONE', *, *, #143, .F. ) ;
#51 = CARTESIAN_POINT ( 'NONE',  ( 5.450000000000001066, 0.0000000000000000000, 4.065758146820641628E-17 ) ) ;
#52 =( NAMED_UNIT ( * ) PLANE_ANGLE_UNIT ( ) SI_UNIT ( $, .RADIAN. ) );
#53 = CARTESIAN_POINT ( 'NONE',  ( 0.0000000000000000000, 0.0000000000000000000, 0.2000000000000000944 ) ) ;
#54 = CLOSED_SHELL ( 'NONE', ( #208, #107, #237, #110, #360, #36, #67, #269, #334, #299, #137, #176, #397, #3 ) ) ;
#55 = SURFACE_STYLE_USAGE ( .BOTH. , #286 ) ;
#56 = CARTESIAN_POINT ( 'NONE',  ( 0.0000000000000000000, 0.0000000000000000000, 0.2000000000000000944 ) ) ;
#57 = CARTESIAN_POINT ( 'NONE',  ( 9.799999999999998934, 0.0000000000000000000, 2.000000000000000000 ) ) ;
#58 = DIRECTION ( 'NONE',  ( 1.000000000000000000, 0.0000000000000000000, 0.0000000000000000000 ) ) ;
#59 = AXIS2_PLACEMENT_3D ( 'NONE', #29, #292, #62 ) ;
#60 = DIRECTION ( 'NONE',  ( 1.000000000000000000, 0.0000000000000000000, 0.0000000000000000000 ) ) ;
#61 = ORIENTED_EDGE ( 'NONE', *, *, #46, .F. ) ;
#62 = DIRECTION ( 'NONE',  ( 1.000000000000000000, 0.0000000000000000000, 0.0000000000000000000 ) ) ;
#63 = CIRCLE ( 'NONE', #409, 0.2000000000000000944 ) ;
#64 = UNCERTAINTY_MEASURE_WITH_UNIT (LENGTH_MEASURE( 1.000000000000000082E-05 ), #386, 'distance_accuracy_value', 'NONE');
#65 = VERTEX_POINT ( 'NONE', #135 ) ;
#66 = DIRECTION ( 'NONE',  ( -0.0000000000000000000, -0.0000000000000000000, -1.000000000000000000 ) ) ;
#67 = ADVANCED_FACE ( 'NONE', ( #309, #241 ), #248, .T. ) ;
#68 = CIRCLE ( 'NONE', #301, 5.250000000000000888 ) ;
#69 = CARTESIAN_POINT ( 'NONE',  ( -5.450000000000001066, 6.674325055353076224E-16, 2.000000000000000000 ) ) ;
#70 = EDGE_LOOP ( 'NONE', ( #129, #38, #76, #121 ) ) ;
#71 = DIRECTION ( 'NONE',  ( 0.0000000000000000000, 0.0000000000000000000, -1.000000000000000000 ) ) ;
#72 = VERTEX_POINT ( 'NONE', #86 ) ;
#73 = STYLED_ITEM ( 'NONE', ( #304 ), #35 ) ;
#74 = AXIS2_PLACEMENT_3D ( 'NONE', #134, #262, #60 ) ;
#75 = FACE_OUTER_BOUND ( 'NONE', #228, .T. ) ;
#76 = ORIENTED_EDGE ( 'NONE', *, *, #105, .T. ) ;
#77 = TOROIDAL_SURFACE ( 'NONE', #356, 9.799999999999998934, 0.2000000000000000111 ) ;
#78 = FACE_OUTER_BOUND ( 'NONE', #341, .T. ) ;
#79 = EDGE_LOOP ( 'NONE', ( #399, #370, #272, #271 ) ) ;
#80 =( LENGTH_UNIT ( ) NAMED_UNIT ( * ) SI_UNIT ( .MILLI., .METRE. ) );
#81 = DIRECTION ( 'NONE',  ( 0.0000000000000000000, 0.0000000000000000000, 1.000000000000000000 ) ) ;
#82 = ORIENTED_EDGE ( 'NONE', *, *, #350, .F. ) ;
#83 = AXIS2_PLACEMENT_3D ( 'NONE', #258, #131, #58 ) ;
#84 =( NAMED_UNIT ( * ) PLANE_ANGLE_UNIT ( ) SI_UNIT ( $, .RADIAN. ) );
#85 = ORIENTED_EDGE ( 'NONE', *, *, #143, .T. ) ;
#86 = CARTESIAN_POINT ( 'NONE',  ( 9.799999999999998934, 0.0000000000000000000, 0.0000000000000000000 ) ) ;
#87 = FACE_OUTER_BOUND ( 'NONE', #215, .T. ) ;
#88 = EDGE_CURVE ( 'NONE', #337, #104, #218, .T. ) ;
#89 = APPLICATION_PROTOCOL_DEFINITION ( 'draft international standard', 'automotive_design', 1998, #381 ) ;
#90 = CARTESIAN_POINT ( 'NONE',  ( 5.450000000000001066, 0.0000000000000000000, 2.000000000000000000 ) ) ;
#91 = ORIENTED_EDGE ( 'NONE', *, *, #172, .F. ) ;
#92 = DIRECTION ( 'NONE',  ( -0.0000000000000000000, -0.0000000000000000000, -1.000000000000000000 ) ) ;
#93 = DIRECTION ( 'NONE',  ( -0.0000000000000000000, -0.0000000000000000000, -1.000000000000000000 ) ) ;
#94 = DIRECTION ( 'NONE',  ( 1.000000000000000000, 0.0000000000000000000, 0.0000000000000000000 ) ) ;
#95 = CARTESIAN_POINT ( 'NONE',  ( -5.250000000000000888, 0.0000000000000000000, 2.000000000000000000 ) ) ;
#96 = EDGE_LOOP ( 'NONE', ( #40, #4, #16, #231 ) ) ;
#97 = DIRECTION ( 'NONE',  ( 0.0000000000000000000, -1.000000000000000000, 0.0000000000000000000 ) ) ;
#98 = DIRECTION ( 'NONE',  ( 0.0000000000000000000, 0.0000000000000000000, 1.000000000000000000 ) ) ;
#99 = CARTESIAN_POINT ( 'NONE',  ( -5.450000000000001066, 6.674325055353076224E-16, 0.2000000000000000944 ) ) ;
#100 = DIRECTION ( 'NONE',  ( 1.000000000000000000, 0.0000000000000000000, 0.0000000000000000000 ) ) ;
#101 = PRESENTATION_LAYER_ASSIGNMENT (  '', '', ( #73 ) ) ;
#102 = AXIS2_PLACEMENT_3D ( 'NONE', #261, #390, #160 ) ;
#103 = CARTESIAN_POINT ( 'NONE',  ( 0.0000000000000000000, 0.0000000000000000000, 0.0000000000000000000 ) ) ;
#104 = VERTEX_POINT ( 'NONE', #187 ) ;
#105 = EDGE_CURVE ( 'NONE', #264, #149, #298, .T. ) ;
#106 = TOROIDAL_SURFACE ( 'NONE', #114, 5.450000000000001066, 0.2000000000000000111 ) ;
#107 = ADVANCED_FACE ( 'NONE', ( #145 ), #77, .T. ) ;
#108 = EDGE_CURVE ( 'NONE', #104, #278, #186, .T. ) ;
#109 = DIRECTION ( 'NONE',  ( 1.000000000000000000, 0.0000000000000000000, 0.0000000000000000000 ) ) ;
#110 = ADVANCED_FACE ( 'NONE', ( #48 ), #303, .T. ) ;
#111 = EDGE_CURVE ( 'NONE', #378, #264, #41, .T. ) ;
#112 = FACE_OUTER_BOUND ( 'NONE', #96, .T. ) ;
#113 = CARTESIAN_POINT ( 'NONE',  ( 9.799999999999998934, 0.0000000000000000000, 1.800000000000000044 ) ) ;
#114 = AXIS2_PLACEMENT_3D ( 'NONE', #161, #421, #100 ) ;
#115 = VERTEX_POINT ( 'NONE', #238 ) ;
#116 = LINE ( 'NONE', #263, #194 ) ;
#117 = COLOUR_RGB ( '',0.7921568627450980005, 0.8196078431372548767, 0.9333333333333333481 ) ;
#118 = SURFACE_SIDE_STYLE ('',( #380 ) ) ;
#119 = MECHANICAL_DESIGN_GEOMETRIC_PRESENTATION_REPRESENTATION (  '', ( #73 ), #142 ) ;
#120 =( GEOMETRIC_REPRESENTATION_CONTEXT ( 3 ) GLOBAL_UNCERTAINTY_ASSIGNED_CONTEXT ( ( #266 ) ) GLOBAL_UNIT_ASSIGNED_CONTEXT ( ( #284, #52, #21 ) ) REPRESENTATION_CONTEXT ( 'NONE', 'WORKASPACE' ) );
#121 = ORIENTED_EDGE ( 'NONE', *, *, #127, .F. ) ;
#122 = VECTOR ( 'NONE', #93, 1000.000000000000000 ) ;
#123 = PRODUCT ( 'M10 WASHER', 'M10 WASHER', '', ( #351 ) ) ;
#124 =( NAMED_UNIT ( * ) SI_UNIT ( $, .STERADIAN. ) SOLID_ANGLE_UNIT ( ) );
#125 = DIRECTION ( 'NONE',  ( -1.000000000000000000, 1.224646799147353207E-16, 0.0000000000000000000 ) ) ;
#126 = DIRECTION ( 'NONE',  ( 0.0000000000000000000, 0.0000000000000000000, 1.000000000000000000 ) ) ;
#127 = EDGE_CURVE ( 'NONE', #65, #149, #225, .T. ) ;
#128 = CARTESIAN_POINT ( 'NONE',  ( 0.0000000000000000000, 0.0000000000000000000, 1.800000000000000044 ) ) ;
#129 = ORIENTED_EDGE ( 'NONE', *, *, #391, .T. ) ;
#130 = DIRECTION ( 'NONE',  ( 1.000000000000000000, 0.0000000000000000000, 0.0000000000000000000 ) ) ;
#131 = DIRECTION ( 'NONE',  ( 0.0000000000000000000, 0.0000000000000000000, 1.000000000000000000 ) ) ;
#132 = AXIS2_PLACEMENT_3D ( 'NONE', #325, #312, #222 ) ;
#133 = CIRCLE ( 'NONE', #339, 0.2000000000000005107 ) ;
#134 = CARTESIAN_POINT ( 'NONE',  ( 0.0000000000000000000, 0.0000000000000000000, 1.800000000000000044 ) ) ;
#135 = CARTESIAN_POINT ( 'NONE',  ( -10.00000000000000000, 0.0000000000000000000, 1.800000000000000044 ) ) ;
#136 = DIRECTION ( 'NONE',  ( -0.0000000000000000000, -0.0000000000000000000, -1.000000000000000000 ) ) ;
#137 = ADVANCED_FACE ( 'NONE', ( #294 ), #31, .T. ) ;
#138 = CARTESIAN_POINT ( 'NONE',  ( 0.0000000000000000000, 0.0000000000000000000, 0.0000000000000000000 ) ) ;
#139 = ORIENTED_EDGE ( 'NONE', *, *, #235, .T. ) ;
#140 = DIRECTION ( 'NONE',  ( -0.0000000000000000000, -0.0000000000000000000, -1.000000000000000000 ) ) ;
#141 = ORIENTED_EDGE ( 'NONE', *, *, #105, .F. ) ;
#142 =( GEOMETRIC_REPRESENTATION_CONTEXT ( 3 ) GLOBAL_UNCERTAINTY_ASSIGNED_CONTEXT ( ( #146 ) ) GLOBAL_UNIT_ASSIGNED_CONTEXT ( ( #80, #84, #124 ) ) REPRESENTATION_CONTEXT ( 'NONE', 'WORKASPACE' ) );
#143 = EDGE_CURVE ( 'NONE', #65, #417, #133, .T. ) ;
#144 = PRODUCT_DEFINITION_SHAPE ( 'NONE', 'NONE',  #315 ) ;
#145 = FACE_OUTER_BOUND ( 'NONE', #368, .T. ) ;
#146 = UNCERTAINTY_MEASURE_WITH_UNIT (LENGTH_MEASURE( 1.000000000000000082E-05 ), #80, 'distance_accuracy_value', 'NONE');
#147 = SHAPE_DEFINITION_REPRESENTATION ( #144, #414 ) ;
#148 = CIRCLE ( 'NONE', #102, 0.2000000000000000111 ) ;
#149 = VERTEX_POINT ( 'NONE', #385 ) ;
#150 = EDGE_LOOP ( 'NONE', ( #169, #212, #306, #316 ) ) ;
#151 = CIRCLE ( 'NONE', #188, 10.00000000000000000 ) ;
#152 = FILL_AREA_STYLE_COLOUR ( '', #206 ) ;
#153 = AXIS2_PLACEMENT_3D ( 'NONE', #250, #98, #283 ) ;
#154 = DIRECTION ( 'NONE',  ( -1.000000000000000000, 0.0000000000000000000, 0.0000000000000000000 ) ) ;
#155 = AXIS2_PLACEMENT_3D ( 'NONE', #290, #376, #382 ) ;
#156 = CARTESIAN_POINT ( 'NONE',  ( 0.0000000000000000000, 0.0000000000000000000, 2.000000000000000000 ) ) ;
#157 = CARTESIAN_POINT ( 'NONE',  ( -5.450000000000001066, 6.674325055353076224E-16, 1.800000000000000044 ) ) ;
#158 = CIRCLE ( 'NONE', #28, 10.00000000000000000 ) ;
#159 = ORIENTED_EDGE ( 'NONE', *, *, #108, .T. ) ;
#160 = DIRECTION ( 'NONE',  ( 0.0000000000000000000, 0.0000000000000000000, -1.000000000000000000 ) ) ;
#161 = CARTESIAN_POINT ( 'NONE',  ( 0.0000000000000000000, 0.0000000000000000000, 1.800000000000000044 ) ) ;
#162 = CIRCLE ( 'NONE', #276, 5.450000000000001066 ) ;
#163 = CARTESIAN_POINT ( 'NONE',  ( 0.0000000000000000000, 0.0000000000000000000, 1.800000000000000044 ) ) ;
#164 = ORIENTED_EDGE ( 'NONE', *, *, #391, .F. ) ;
#165 = CARTESIAN_POINT ( 'NONE',  ( 10.00000000000000000, 1.224646799147353256E-15, 2.000000000000000000 ) ) ;
#166 = CARTESIAN_POINT ( 'NONE',  ( 0.0000000000000000000, 0.0000000000000000000, 0.0000000000000000000 ) ) ;
#167 = DIRECTION ( 'NONE',  ( 1.000000000000000000, 0.0000000000000000000, 0.0000000000000000000 ) ) ;
#168 = CARTESIAN_POINT ( 'NONE',  ( 10.00000000000000000, 1.224646799147353256E-15, 1.800000000000000044 ) ) ;
#169 = ORIENTED_EDGE ( 'NONE', *, *, #111, .F. ) ;
#170 = DIRECTION ( 'NONE',  ( 1.224646799147353207E-16, 1.000000000000000000, -0.0000000000000000000 ) ) ;
#171 = STYLED_ITEM ( 'NONE', ( #362 ), #414 ) ;
#172 = EDGE_CURVE ( 'NONE', #72, #264, #216, .T. ) ;
#173 = EDGE_LOOP ( 'NONE', ( #344, #245 ) ) ;
#174 = FACE_OUTER_BOUND ( 'NONE', #275, .T. ) ;
#175 = CARTESIAN_POINT ( 'NONE',  ( 0.0000000000000000000, 0.0000000000000000000, 0.0000000000000000000 ) ) ;
#176 = ADVANCED_FACE ( 'NONE', ( #282 ), #205, .T. ) ;
#177 = VERTEX_POINT ( 'NONE', #90 ) ;
#178 = CARTESIAN_POINT ( 'NONE',  ( 0.0000000000000000000, 0.0000000000000000000, 2.000000000000000000 ) ) ;
#179 = CARTESIAN_POINT ( 'NONE',  ( -5.250000000000000888, 0.0000000000000000000, 0.2000000000000000944 ) ) ;
#180 = EDGE_LOOP ( 'NONE', ( #27, #394 ) ) ;
#181 = AXIS2_PLACEMENT_3D ( 'NONE', #156, #66, #197 ) ;
#182 = EDGE_CURVE ( 'NONE', #12, #149, #359, .T. ) ;
#183 = EDGE_LOOP ( 'NONE', ( #396, #313, #240, #252 ) ) ;
#184 = CIRCLE ( 'NONE', #181, 5.450000000000001066 ) ;
#185 = DIRECTION ( 'NONE',  ( 0.0000000000000000000, 0.0000000000000000000, 1.000000000000000000 ) ) ;
#186 = LINE ( 'NONE', #95, #395 ) ;
#187 = CARTESIAN_POINT ( 'NONE',  ( -5.250000000000000888, 0.0000000000000000000, 1.800000000000000044 ) ) ;
#188 = AXIS2_PLACEMENT_3D ( 'NONE', #377, #191, #314 ) ;
#189 = ORIENTED_EDGE ( 'NONE', *, *, #317, .T. ) ;
#190 = PRESENTATION_LAYER_ASSIGNMENT (  '', '', ( #171 ) ) ;
#191 = DIRECTION ( 'NONE',  ( -0.0000000000000000000, -0.0000000000000000000, -1.000000000000000000 ) ) ;
#192 = EDGE_CURVE ( 'NONE', #417, #412, #371, .T. ) ;
#193 = APPLICATION_CONTEXT ( 'automotive_design' ) ;
#194 = VECTOR ( 'NONE', #200, 1000.000000000000000 ) ;
#195 = DIRECTION ( 'NONE',  ( 0.0000000000000000000, -1.000000000000000000, 0.0000000000000000000 ) ) ;
#196 = DIRECTION ( 'NONE',  ( -0.0000000000000000000, -0.0000000000000000000, -1.000000000000000000 ) ) ;
#197 = DIRECTION ( 'NONE',  ( 1.000000000000000000, 0.0000000000000000000, 0.0000000000000000000 ) ) ;
#198 = DIRECTION ( 'NONE',  ( 0.0000000000000000000, 0.0000000000000000000, 1.000000000000000000 ) ) ;
#199 = AXIS2_PLACEMENT_3D ( 'NONE', #324, #1, #34 ) ;
#200 = DIRECTION ( 'NONE',  ( -0.0000000000000000000, -0.0000000000000000000, -1.000000000000000000 ) ) ;
#201 = AXIS2_PLACEMENT_3D ( 'NONE', #128, #257, #130 ) ;
#202 = ORIENTED_EDGE ( 'NONE', *, *, #182, .T. ) ;
#203 = EDGE_CURVE ( 'NONE', #402, #407, #116, .T. ) ;
#204 =( NAMED_UNIT ( * ) PLANE_ANGLE_UNIT ( ) SI_UNIT ( $, .RADIAN. ) );
#205 = TOROIDAL_SURFACE ( 'NONE', #39, 9.799999999999998934, 0.2000000000000000111 ) ;
#206 = COLOUR_RGB ( '',0.7921568627450980005, 0.8196078431372548767, 0.9333333333333333481 ) ;
#207 = CARTESIAN_POINT ( 'NONE',  ( 0.0000000000000000000, 0.0000000000000000000, 2.000000000000000000 ) ) ;
#208 = ADVANCED_FACE ( 'NONE', ( #18 ), #106, .T. ) ;
#209 = DIRECTION ( 'NONE',  ( -1.000000000000000000, 0.0000000000000000000, 0.0000000000000000000 ) ) ;
#210 = DIRECTION ( 'NONE',  ( -0.0000000000000000000, -0.0000000000000000000, -1.000000000000000000 ) ) ;
#211 = DIRECTION ( 'NONE',  ( -0.0000000000000000000, -0.0000000000000000000, -1.000000000000000000 ) ) ;
#212 = ORIENTED_EDGE ( 'NONE', *, *, #46, .T. ) ;
#213 = AXIS2_PLACEMENT_3D ( 'NONE', #413, #13, #154 ) ;
#214 = MECHANICAL_DESIGN_GEOMETRIC_PRESENTATION_REPRESENTATION (  '', ( #171 ), #234 ) ;
#215 = EDGE_LOOP ( 'NONE', ( #25, #202, #141, #91 ) ) ;
#216 = CIRCLE ( 'NONE', #418, 0.2000000000000000111 ) ;
#217 = EDGE_CURVE ( 'NONE', #104, #402, #11, .T. ) ;
#218 = CIRCLE ( 'NONE', #233, 0.1999999999999996503 ) ;
#219 = CARTESIAN_POINT ( 'NONE',  ( 0.0000000000000000000, 0.0000000000000000000, 2.000000000000000000 ) ) ;
#220 = EDGE_CURVE ( 'NONE', #224, #115, #352, .T. ) ;
#221 = AXIS2_PLACEMENT_3D ( 'NONE', #166, #6, #400 ) ;
#222 = DIRECTION ( 'NONE',  ( 1.000000000000000000, 0.0000000000000000000, 0.0000000000000000000 ) ) ;
#223 = EDGE_CURVE ( 'NONE', #177, #337, #274, .T. ) ;
#224 = VERTEX_POINT ( 'NONE', #51 ) ;
#225 = LINE ( 'NONE', #259, #122 ) ;
#226 = DIRECTION ( 'NONE',  ( 0.0000000000000000000, 0.0000000000000000000, -1.000000000000000000 ) ) ;
#227 = DIRECTION ( 'NONE',  ( 1.224646799147353207E-16, 1.000000000000000000, -0.0000000000000000000 ) ) ;
#228 = EDGE_LOOP ( 'NONE', ( #50, #61, #374, #10 ) ) ;
#229 = DIRECTION ( 'NONE',  ( 0.0000000000000000000, 0.0000000000000000000, 1.000000000000000000 ) ) ;
#230 = CARTESIAN_POINT ( 'NONE',  ( 5.250000000000000888, 6.429395695523605139E-16, 0.2000000000000000944 ) ) ;
#231 = ORIENTED_EDGE ( 'NONE', *, *, #217, .F. ) ;
#232 = DIRECTION ( 'NONE',  ( -1.000000000000000000, 1.224646799147353207E-16, 0.0000000000000000000 ) ) ;
#233 = AXIS2_PLACEMENT_3D ( 'NONE', #157, #348, #24 ) ;
#234 =( GEOMETRIC_REPRESENTATION_CONTEXT ( 3 ) GLOBAL_UNCERTAINTY_ASSIGNED_CONTEXT ( ( #64 ) ) GLOBAL_UNIT_ASSIGNED_CONTEXT ( ( #386, #204, #255 ) ) REPRESENTATION_CONTEXT ( 'NONE', 'WORKASPACE' ) );
#235 = EDGE_CURVE ( 'NONE', #337, #177, #184, .T. ) ;
#236 = TOROIDAL_SURFACE ( 'NONE', #74, 9.799999999999998934, 0.2000000000000000111 ) ;
#237 = ADVANCED_FACE ( 'NONE', ( #87 ), #2, .T. ) ;
#238 = CARTESIAN_POINT ( 'NONE',  ( -5.450000000000001066, 6.674325055353076224E-16, 4.065758146820641628E-17 ) ) ;
#239 = ORIENTED_EDGE ( 'NONE', *, *, #317, .F. ) ;
#240 = ORIENTED_EDGE ( 'NONE', *, *, #220, .F. ) ;
#241 = FACE_BOUND ( 'NONE', #419, .T. ) ;
#242 = CARTESIAN_POINT ( 'NONE',  ( 0.0000000000000000000, 0.0000000000000000000, 0.2000000000000000944 ) ) ;
#243 = AXIS2_PLACEMENT_3D ( 'NONE', #113, #300, #71 ) ;
#244 = CIRCLE ( 'NONE', #347, 9.799999999999998934 ) ;
#245 = ORIENTED_EDGE ( 'NONE', *, *, #192, .T. ) ;
#246 = FACE_OUTER_BOUND ( 'NONE', #349, .T. ) ;
#247 = ORIENTED_EDGE ( 'NONE', *, *, #203, .T. ) ;
#248 = PLANE ( 'NONE',  #251 ) ;
#249 = ORIENTED_EDGE ( 'NONE', *, *, #108, .F. ) ;
#250 = CARTESIAN_POINT ( 'NONE',  ( 0.0000000000000000000, 0.0000000000000000000, 0.2000000000000000944 ) ) ;
#251 = AXIS2_PLACEMENT_3D ( 'NONE', #207, #281, #47 ) ;
#252 = ORIENTED_EDGE ( 'NONE', *, *, #410, .F. ) ;
#253 = EDGE_CURVE ( 'NONE', #402, #104, #265, .T. ) ;
#254 = CIRCLE ( 'NONE', #199, 10.00000000000000000 ) ;
#255 =( NAMED_UNIT ( * ) SI_UNIT ( $, .STERADIAN. ) SOLID_ANGLE_UNIT ( ) );
#256 = ORIENTED_EDGE ( 'NONE', *, *, #253, .T. ) ;
#257 = DIRECTION ( 'NONE',  ( 0.0000000000000000000, 0.0000000000000000000, 1.000000000000000000 ) ) ;
#258 = CARTESIAN_POINT ( 'NONE',  ( 0.0000000000000000000, 0.0000000000000000000, 1.800000000000000044 ) ) ;
#259 = CARTESIAN_POINT ( 'NONE',  ( -10.00000000000000000, 0.0000000000000000000, 2.000000000000000000 ) ) ;
#260 = AXIS2_PLACEMENT_3D ( 'NONE', #242, #211, #364 ) ;
#261 = CARTESIAN_POINT ( 'NONE',  ( 5.450000000000001066, 0.0000000000000000000, 0.2000000000000000944 ) ) ;
#262 = DIRECTION ( 'NONE',  ( 0.0000000000000000000, 0.0000000000000000000, 1.000000000000000000 ) ) ;
#263 = CARTESIAN_POINT ( 'NONE',  ( 5.250000000000000888, 6.429395695523605139E-16, 2.000000000000000000 ) ) ;
#264 = VERTEX_POINT ( 'NONE', #388 ) ;
#265 = CIRCLE ( 'NONE', #201, 5.250000000000000888 ) ;
#266 = UNCERTAINTY_MEASURE_WITH_UNIT (LENGTH_MEASURE( 1.000000000000000082E-05 ), #284, 'distance_accuracy_value', 'NONE');
#267 = PLANE ( 'NONE',  #221 ) ;
#268 = CARTESIAN_POINT ( 'NONE',  ( 0.0000000000000000000, 0.0000000000000000000, 2.000000000000000000 ) ) ;
#269 = ADVANCED_FACE ( 'NONE', ( #343, #174 ), #267, .F. ) ;
#270 = DIRECTION ( 'NONE',  ( -0.0000000000000000000, -0.0000000000000000000, -1.000000000000000000 ) ) ;
#271 = ORIENTED_EDGE ( 'NONE', *, *, #366, .F. ) ;
#272 = ORIENTED_EDGE ( 'NONE', *, *, #253, .F. ) ;
#273 = EDGE_CURVE ( 'NONE', #149, #264, #254, .T. ) ;
#274 = CIRCLE ( 'NONE', #155, 5.450000000000001066 ) ;
#275 = EDGE_LOOP ( 'NONE', ( #406, #357 ) ) ;
#276 = AXIS2_PLACEMENT_3D ( 'NONE', #138, #336, #109 ) ;
#277 = DIRECTION ( 'NONE',  ( 1.000000000000000000, 0.0000000000000000000, 0.0000000000000000000 ) ) ;
#278 = VERTEX_POINT ( 'NONE', #179 ) ;
#279 = EDGE_CURVE ( 'NONE', #378, #412, #335, .T. ) ;
#280 = APPLICATION_PROTOCOL_DEFINITION ( 'draft international standard', 'automotive_design', 1998, #193 ) ;
#281 = DIRECTION ( 'NONE',  ( 0.0000000000000000000, 0.0000000000000000000, 1.000000000000000000 ) ) ;
#282 = FACE_OUTER_BOUND ( 'NONE', #7, .T. ) ;
#283 = DIRECTION ( 'NONE',  ( 1.000000000000000000, 0.0000000000000000000, 0.0000000000000000000 ) ) ;
#284 =( LENGTH_UNIT ( ) NAMED_UNIT ( * ) SI_UNIT ( .MILLI., .METRE. ) );
#285 = DIRECTION ( 'NONE',  ( 1.000000000000000000, 0.0000000000000000000, 0.0000000000000000000 ) ) ;
#286 = SURFACE_SIDE_STYLE ('',( #20 ) ) ;
#287 = ORIENTED_EDGE ( 'NONE', *, *, #172, .T. ) ;
#288 = DIRECTION ( 'NONE',  ( 0.0000000000000000000, 0.0000000000000000000, -1.000000000000000000 ) ) ;
#289 = DIRECTION ( 'NONE',  ( 1.000000000000000000, 0.0000000000000000000, 0.0000000000000000000 ) ) ;
#290 = CARTESIAN_POINT ( 'NONE',  ( 0.0000000000000000000, 0.0000000000000000000, 2.000000000000000000 ) ) ;
#291 = FILL_AREA_STYLE_COLOUR ( '', #117 ) ;
#292 = DIRECTION ( 'NONE',  ( 0.0000000000000000000, 0.0000000000000000000, 1.000000000000000000 ) ) ;
#293 = ORIENTED_EDGE ( 'NONE', *, *, #223, .T. ) ;
#294 = FACE_OUTER_BOUND ( 'NONE', #422, .T. ) ;
#295 = AXIS2_PLACEMENT_3D ( 'NONE', #103, #354, #94 ) ;
#296 = EDGE_CURVE ( 'NONE', #278, #407, #416, .T. ) ;
#297 = CARTESIAN_POINT ( 'NONE',  ( 5.450000000000001066, 0.0000000000000000000, 1.800000000000000044 ) ) ;
#298 = CIRCLE ( 'NONE', #310, 10.00000000000000000 ) ;
#299 = ADVANCED_FACE ( 'NONE', ( #246 ), #320, .F. ) ;
#300 = DIRECTION ( 'NONE',  ( 0.0000000000000000000, -1.000000000000000000, 0.0000000000000000000 ) ) ;
#301 = AXIS2_PLACEMENT_3D ( 'NONE', #5, #210, #398 ) ;
#302 = ORIENTED_EDGE ( 'NONE', *, *, #410, .T. ) ;
#303 = TOROIDAL_SURFACE ( 'NONE', #373, 5.450000000000001066, 0.2000000000000000111 ) ;
#304 = PRESENTATION_STYLE_ASSIGNMENT (( #308 ) ) ;
#305 = PRODUCT_DEFINITION_CONTEXT ( 'detailed design', #193, 'design' ) ;
#306 = ORIENTED_EDGE ( 'NONE', *, *, #127, .T. ) ;
#307 = ORIENTED_EDGE ( 'NONE', *, *, #408, .F. ) ;
#308 = SURFACE_STYLE_USAGE ( .BOTH. , #118 ) ;
#309 = FACE_OUTER_BOUND ( 'NONE', #173, .T. ) ;
#310 = AXIS2_PLACEMENT_3D ( 'NONE', #389, #198, #355 ) ;
#311 = CARTESIAN_POINT ( 'NONE',  ( -9.799999999999998934, 1.212400331155879505E-15, 0.0000000000000000000 ) ) ;
#312 = DIRECTION ( 'NONE',  ( 0.0000000000000000000, 0.0000000000000000000, 1.000000000000000000 ) ) ;
#313 = ORIENTED_EDGE ( 'NONE', *, *, #408, .T. ) ;
#314 = DIRECTION ( 'NONE',  ( 1.000000000000000000, 0.0000000000000000000, 0.0000000000000000000 ) ) ;
#315 = PRODUCT_DEFINITION ( 'UNKNOWN', '', #342, #305 ) ;
#316 = ORIENTED_EDGE ( 'NONE', *, *, #273, .T. ) ;
#317 = EDGE_CURVE ( 'NONE', #407, #278, #68, .T. ) ;
#318 = CARTESIAN_POINT ( 'NONE',  ( 5.250000000000000888, 6.429395695523605139E-16, 1.800000000000000044 ) ) ;
#319 = DIRECTION ( 'NONE',  ( 0.0000000000000000000, 0.0000000000000000000, 1.000000000000000000 ) ) ;
#320 = CYLINDRICAL_SURFACE ( 'NONE', #326, 5.250000000000000888 ) ;
#321 = ORIENTED_EDGE ( 'NONE', *, *, #329, .F. ) ;
#322 = FILL_AREA_STYLE ('',( #291 ) ) ;
#323 = DIRECTION ( 'NONE',  ( 0.0000000000000000000, 0.0000000000000000000, 1.000000000000000000 ) ) ;
#324 = CARTESIAN_POINT ( 'NONE',  ( 0.0000000000000000000, 0.0000000000000000000, 0.2000000000000000944 ) ) ;
#325 = CARTESIAN_POINT ( 'NONE',  ( 0.0000000000000000000, 0.0000000000000000000, 0.0000000000000000000 ) ) ;
#326 = AXIS2_PLACEMENT_3D ( 'NONE', #37, #136, #365 ) ;
#327 = DIRECTION ( 'NONE',  ( 1.224646799147353207E-16, 1.000000000000000000, -0.0000000000000000000 ) ) ;
#328 = DIRECTION ( 'NONE',  ( -1.000000000000000000, 1.224646799147353454E-16, 0.0000000000000000000 ) ) ;
#329 = EDGE_CURVE ( 'NONE', #115, #224, #162, .T. ) ;
#330 = CYLINDRICAL_SURFACE ( 'NONE', #392, 10.00000000000000000 ) ;
#331 = ORIENTED_EDGE ( 'NONE', *, *, #182, .F. ) ;
#332 = CYLINDRICAL_SURFACE ( 'NONE', #213, 10.00000000000000000 ) ;
#333 = DIRECTION ( 'NONE',  ( 1.000000000000000000, 0.0000000000000000000, 0.0000000000000000000 ) ) ;
#334 = ADVANCED_FACE ( 'NONE', ( #405 ), #330, .T. ) ;
#335 = CIRCLE ( 'NONE', #243, 0.2000000000000000944 ) ;
#336 = DIRECTION ( 'NONE',  ( 0.0000000000000000000, 0.0000000000000000000, 1.000000000000000000 ) ) ;
#337 = VERTEX_POINT ( 'NONE', #69 ) ;
#338 = FACE_OUTER_BOUND ( 'NONE', #70, .T. ) ;
#339 = AXIS2_PLACEMENT_3D ( 'NONE', #384, #227, #125 ) ;
#340 = ORIENTED_EDGE ( 'NONE', *, *, #8, .F. ) ;
#341 = EDGE_LOOP ( 'NONE', ( #346, #247, #189, #249 ) ) ;
#342 = PRODUCT_DEFINITION_FORMATION_WITH_SPECIFIED_SOURCE ( 'ANY', '', #123, .NOT_KNOWN. ) ;
#343 = FACE_BOUND ( 'NONE', #180, .T. ) ;
#344 = ORIENTED_EDGE ( 'NONE', *, *, #8, .T. ) ;
#345 = FILL_AREA_STYLE ('',( #152 ) ) ;
#346 = ORIENTED_EDGE ( 'NONE', *, *, #217, .T. ) ;
#347 = AXIS2_PLACEMENT_3D ( 'NONE', #353, #92, #420 ) ;
#348 = DIRECTION ( 'NONE',  ( 1.224646799147353207E-16, 1.000000000000000000, -0.0000000000000000000 ) ) ;
#349 = EDGE_LOOP ( 'NONE', ( #45, #256, #159, #30 ) ) ;
#350 = EDGE_CURVE ( 'NONE', #72, #12, #411, .T. ) ;
#351 = PRODUCT_CONTEXT ( 'NONE', #381, 'mechanical' ) ;
#352 = CIRCLE ( 'NONE', #132, 5.450000000000001066 ) ;
#353 = CARTESIAN_POINT ( 'NONE',  ( 0.0000000000000000000, 0.0000000000000000000, 0.0000000000000000000 ) ) ;
#354 = DIRECTION ( 'NONE',  ( 0.0000000000000000000, 0.0000000000000000000, 1.000000000000000000 ) ) ;
#355 = DIRECTION ( 'NONE',  ( 1.000000000000000000, 0.0000000000000000000, 0.0000000000000000000 ) ) ;
#356 = AXIS2_PLACEMENT_3D ( 'NONE', #17, #229, #167 ) ;
#357 = ORIENTED_EDGE ( 'NONE', *, *, #369, .T. ) ;
#358 = PRODUCT_RELATED_PRODUCT_CATEGORY ( 'part', '', ( #123 ) ) ;
#359 = CIRCLE ( 'NONE', #14, 0.2000000000000005107 ) ;
#360 = ADVANCED_FACE ( 'NONE', ( #78 ), #403, .F. ) ;
#361 = DIRECTION ( 'NONE',  ( -0.0000000000000000000, -0.0000000000000000000, -1.000000000000000000 ) ) ;
#362 = PRESENTATION_STYLE_ASSIGNMENT (( #55 ) ) ;
#363 = DIRECTION ( 'NONE',  ( -1.000000000000000000, 0.0000000000000000000, 0.0000000000000000000 ) ) ;
#364 = DIRECTION ( 'NONE',  ( 1.000000000000000000, 0.0000000000000000000, 0.0000000000000000000 ) ) ;
#365 = DIRECTION ( 'NONE',  ( -1.000000000000000000, 0.0000000000000000000, 0.0000000000000000000 ) ) ;
#366 = EDGE_CURVE ( 'NONE', #177, #402, #63, .T. ) ;
#367 = AXIS2_PLACEMENT_3D ( 'NONE', #175, #361, #333 ) ;
#368 = EDGE_LOOP ( 'NONE', ( #164, #85, #340, #15 ) ) ;
#369 = EDGE_CURVE ( 'NONE', #12, #72, #244, .T. ) ;
#370 = ORIENTED_EDGE ( 'NONE', *, *, #88, .T. ) ;
#371 = CIRCLE ( 'NONE', #59, 9.799999999999998934 ) ;
#372 = DIRECTION ( 'NONE',  ( 1.000000000000000000, 0.0000000000000000000, 0.0000000000000000000 ) ) ;
#373 = AXIS2_PLACEMENT_3D ( 'NONE', #56, #323, #23 ) ;
#374 = ORIENTED_EDGE ( 'NONE', *, *, #279, .T. ) ;
#375 = TOROIDAL_SURFACE ( 'NONE', #43, 5.450000000000001066, 0.2000000000000000111 ) ;
#376 = DIRECTION ( 'NONE',  ( -0.0000000000000000000, -0.0000000000000000000, -1.000000000000000000 ) ) ;
#377 = CARTESIAN_POINT ( 'NONE',  ( 0.0000000000000000000, 0.0000000000000000000, 1.800000000000000044 ) ) ;
#378 = VERTEX_POINT ( 'NONE', #168 ) ;
#379 = VECTOR ( 'NONE', #387, 1000.000000000000000 ) ;
#380 = SURFACE_STYLE_FILL_AREA ( #345 ) ;
#381 = APPLICATION_CONTEXT ( 'automotive_design' ) ;
#382 = DIRECTION ( 'NONE',  ( 1.000000000000000000, 0.0000000000000000000, 0.0000000000000000000 ) ) ;
#383 = DIRECTION ( 'NONE',  ( -0.0000000000000000000, -0.0000000000000000000, -1.000000000000000000 ) ) ;
#384 = CARTESIAN_POINT ( 'NONE',  ( -9.799999999999998934, 1.200153863164406148E-15, 1.800000000000000044 ) ) ;
#385 = CARTESIAN_POINT ( 'NONE',  ( -10.00000000000000000, 0.0000000000000000000, 0.2000000000000000944 ) ) ;
#386 =( LENGTH_UNIT ( ) NAMED_UNIT ( * ) SI_UNIT ( .MILLI., .METRE. ) );
#387 = DIRECTION ( 'NONE',  ( -0.0000000000000000000, -0.0000000000000000000, -1.000000000000000000 ) ) ;
#388 = CARTESIAN_POINT ( 'NONE',  ( 10.00000000000000000, 1.224646799147353256E-15, 0.2000000000000000944 ) ) ;
#389 = CARTESIAN_POINT ( 'NONE',  ( 0.0000000000000000000, 0.0000000000000000000, 0.2000000000000000944 ) ) ;
#390 = DIRECTION ( 'NONE',  ( 0.0000000000000000000, -1.000000000000000000, 0.0000000000000000000 ) ) ;
#391 = EDGE_CURVE ( 'NONE', #65, #378, #158, .T. ) ;
#392 = AXIS2_PLACEMENT_3D ( 'NONE', #178, #140, #363 ) ;
#393 = CARTESIAN_POINT ( 'NONE',  ( -9.799999999999998934, 1.212400331155879505E-15, 2.000000000000000000 ) ) ;
#394 = ORIENTED_EDGE ( 'NONE', *, *, #329, .T. ) ;
#395 = VECTOR ( 'NONE', #196, 1000.000000000000000 ) ;
#396 = ORIENTED_EDGE ( 'NONE', *, *, #296, .F. ) ;
#397 = ADVANCED_FACE ( 'NONE', ( #75 ), #236, .T. ) ;
#398 = DIRECTION ( 'NONE',  ( 1.000000000000000000, 0.0000000000000000000, 0.0000000000000000000 ) ) ;
#399 = ORIENTED_EDGE ( 'NONE', *, *, #235, .F. ) ;
#400 = DIRECTION ( 'NONE',  ( 1.000000000000000000, 0.0000000000000000000, -0.0000000000000000000 ) ) ;
#401 = AXIS2_PLACEMENT_3D ( 'NONE', #53, #126, #285 ) ;
#402 = VERTEX_POINT ( 'NONE', #318 ) ;
#403 = CYLINDRICAL_SURFACE ( 'NONE', #9, 5.250000000000000888 ) ;
#404 = ORIENTED_EDGE ( 'NONE', *, *, #273, .F. ) ;
#405 = FACE_OUTER_BOUND ( 'NONE', #150, .T. ) ;
#406 = ORIENTED_EDGE ( 'NONE', *, *, #350, .T. ) ;
#407 = VERTEX_POINT ( 'NONE', #230 ) ;
#408 = EDGE_CURVE ( 'NONE', #278, #115, #49, .T. ) ;
#409 = AXIS2_PLACEMENT_3D ( 'NONE', #297, #97, #288 ) ;
#410 = EDGE_CURVE ( 'NONE', #407, #224, #148, .T. ) ;
#411 = CIRCLE ( 'NONE', #367, 9.799999999999998934 ) ;
#412 = VERTEX_POINT ( 'NONE', #57 ) ;
#413 = CARTESIAN_POINT ( 'NONE',  ( 0.0000000000000000000, 0.0000000000000000000, 2.000000000000000000 ) ) ;
#414 = ADVANCED_BREP_SHAPE_REPRESENTATION ( 'M10 WASHER', ( #35, #295 ), #120 ) ;
#415 = CARTESIAN_POINT ( 'NONE',  ( 9.799999999999998934, 0.0000000000000000000, 0.2000000000000000944 ) ) ;
#416 = CIRCLE ( 'NONE', #260, 5.250000000000000888 ) ;
#417 = VERTEX_POINT ( 'NONE', #393 ) ;
#418 = AXIS2_PLACEMENT_3D ( 'NONE', #415, #195, #226 ) ;
#419 = EDGE_LOOP ( 'NONE', ( #293, #139 ) ) ;
#420 = DIRECTION ( 'NONE',  ( 1.000000000000000000, 0.0000000000000000000, 0.0000000000000000000 ) ) ;
#421 = DIRECTION ( 'NONE',  ( 0.0000000000000000000, 0.0000000000000000000, 1.000000000000000000 ) ) ;
#422 = EDGE_LOOP ( 'NONE', ( #307, #239, #302, #321 ) ) ;
ENDSEC;
END-ISO-10303-21;
