ISO-10303-21;
HEADER;
FILE_DESCRIPTION (( 'STEP AP214' ),
    '1' );
FILE_NAME ('M16 WASHER.STEP',
    '2021-06-13T07:44:45',
    ( '' ),
    ( '' ),
    'SwSTEP 2.0',
    'SolidWorks 2018',
    '' );
FILE_SCHEMA (( 'AUTOMOTIVE_DESIGN' ));
ENDSEC;

DATA;
#1 = DIRECTION ( 'NONE',  ( -1.000000000000000000, 0.0000000000000000000, 0.0000000000000000000 ) ) ;
#2 = FILL_AREA_STYLE ('',( #71 ) ) ;
#3 = FACE_OUTER_BOUND ( 'NONE', #48, .T. ) ;
#4 = ORIENTED_EDGE ( 'NONE', *, *, #345, .F. ) ;
#5 = DIRECTION ( 'NONE',  ( -0.0000000000000000000, -0.0000000000000000000, -1.000000000000000000 ) ) ;
#6 = CARTESIAN_POINT ( 'NONE',  ( -8.700000000000001066, 1.065442715258197446E-15, 4.065758146820641628E-17 ) ) ;
#7 = EDGE_CURVE ( 'NONE', #213, #319, #28, .T. ) ;
#8 = AXIS2_PLACEMENT_3D ( 'NONE', #178, #411, #282 ) ;
#9 = SURFACE_STYLE_USAGE ( .BOTH. , #206 ) ;
#10 = DIRECTION ( 'NONE',  ( 1.000000000000000000, 0.0000000000000000000, 0.0000000000000000000 ) ) ;
#11 = CARTESIAN_POINT ( 'NONE',  ( 0.0000000000000000000, 0.0000000000000000000, 0.0000000000000000000 ) ) ;
#12 = AXIS2_PLACEMENT_3D ( 'NONE', #139, #367, #170 ) ;
#13 = CIRCLE ( 'NONE', #222, 14.79999999999999893 ) ;
#14 = DIRECTION ( 'NONE',  ( 0.0000000000000000000, 0.0000000000000000000, 1.000000000000000000 ) ) ;
#15 = EDGE_LOOP ( 'NONE', ( #120, #337, #358, #350 ) ) ;
#16 = DIRECTION ( 'NONE',  ( 1.000000000000000000, 0.0000000000000000000, 0.0000000000000000000 ) ) ;
#17 = CARTESIAN_POINT ( 'NONE',  ( 0.0000000000000000000, 0.0000000000000000000, 3.000000000000000000 ) ) ;
#18 = CARTESIAN_POINT ( 'NONE',  ( 0.0000000000000000000, 0.0000000000000000000, 0.0000000000000000000 ) ) ;
#19 = CIRCLE ( 'NONE', #349, 8.700000000000001066 ) ;
#20 = AXIS2_PLACEMENT_3D ( 'NONE', #42, #266, #70 ) ;
#21 = ORIENTED_EDGE ( 'NONE', *, *, #56, .T. ) ;
#22 = ORIENTED_EDGE ( 'NONE', *, *, #177, .F. ) ;
#23 = DIRECTION ( 'NONE',  ( 0.0000000000000000000, 0.0000000000000000000, 1.000000000000000000 ) ) ;
#24 = FACE_OUTER_BOUND ( 'NONE', #169, .T. ) ;
#25 = ORIENTED_EDGE ( 'NONE', *, *, #177, .T. ) ;
#26 = EDGE_CURVE ( 'NONE', #130, #415, #195, .T. ) ;
#27 = TOROIDAL_SURFACE ( 'NONE', #210, 14.79999999999999893, 0.2000000000000000111 ) ;
#28 = LINE ( 'NONE', #328, #80 ) ;
#29 = ORIENTED_EDGE ( 'NONE', *, *, #247, .F. ) ;
#30 = ADVANCED_FACE ( 'NONE', ( #200 ), #231, .F. ) ;
#31 = EDGE_CURVE ( 'NONE', #213, #401, #394, .T. ) ;
#32 = AXIS2_PLACEMENT_3D ( 'NONE', #408, #112, #168 ) ;
#33 = ORIENTED_EDGE ( 'NONE', *, *, #255, .F. ) ;
#34 = TOROIDAL_SURFACE ( 'NONE', #189, 8.700000000000001066, 0.2000000000000000111 ) ;
#35 = ADVANCED_FACE ( 'NONE', ( #294 ), #67, .T. ) ;
#36 = ORIENTED_EDGE ( 'NONE', *, *, #290, .F. ) ;
#37 = DIRECTION ( 'NONE',  ( 0.0000000000000000000, 0.0000000000000000000, 1.000000000000000000 ) ) ;
#38 = CIRCLE ( 'NONE', #389, 8.700000000000001066 ) ;
#39 = DIRECTION ( 'NONE',  ( 1.000000000000000000, 0.0000000000000000000, -0.0000000000000000000 ) ) ;
#40 = VERTEX_POINT ( 'NONE', #259 ) ;
#41 = AXIS2_PLACEMENT_3D ( 'NONE', #395, #264, #162 ) ;
#42 = CARTESIAN_POINT ( 'NONE',  ( -14.79999999999999893, 1.812477262738082480E-15, 2.799999999999999822 ) ) ;
#43 = DIRECTION ( 'NONE',  ( 0.0000000000000000000, -1.000000000000000000, 0.0000000000000000000 ) ) ;
#44 = DIRECTION ( 'NONE',  ( 0.0000000000000000000, -1.000000000000000000, 0.0000000000000000000 ) ) ;
#45 =( NAMED_UNIT ( * ) PLANE_ANGLE_UNIT ( ) SI_UNIT ( $, .RADIAN. ) );
#46 = DIRECTION ( 'NONE',  ( 0.0000000000000000000, 0.0000000000000000000, 1.000000000000000000 ) ) ;
#47 = CYLINDRICAL_SURFACE ( 'NONE', #146, 15.00000000000000000 ) ;
#48 = EDGE_LOOP ( 'NONE', ( #113, #33, #188, #22 ) ) ;
#49 = DIRECTION ( 'NONE',  ( 1.000000000000000000, 0.0000000000000000000, 0.0000000000000000000 ) ) ;
#50 = CARTESIAN_POINT ( 'NONE',  ( -8.500000000000000000, 0.0000000000000000000, 0.2000000000000000944 ) ) ;
#51 = CIRCLE ( 'NONE', #94, 0.2000000000000005107 ) ;
#52 = DIRECTION ( 'NONE',  ( 1.000000000000000000, 0.0000000000000000000, 0.0000000000000000000 ) ) ;
#53 = ORIENTED_EDGE ( 'NONE', *, *, #134, .F. ) ;
#54 = DIRECTION ( 'NONE',  ( 1.000000000000000000, 0.0000000000000000000, 0.0000000000000000000 ) ) ;
#55 = CARTESIAN_POINT ( 'NONE',  ( 0.0000000000000000000, 0.0000000000000000000, 2.799999999999999822 ) ) ;
#56 = EDGE_CURVE ( 'NONE', #386, #153, #73, .T. ) ;
#57 = AXIS2_PLACEMENT_3D ( 'NONE', #116, #314, #79 ) ;
#58 = PRESENTATION_STYLE_ASSIGNMENT (( #9 ) ) ;
#59 = ORIENTED_EDGE ( 'NONE', *, *, #301, .F. ) ;
#60 = AXIS2_PLACEMENT_3D ( 'NONE', #260, #232, #39 ) ;
#61 = EDGE_LOOP ( 'NONE', ( #291, #121, #29, #364 ) ) ;
#62 = ADVANCED_FACE ( 'NONE', ( #261, #160 ), #293, .F. ) ;
#63 = CARTESIAN_POINT ( 'NONE',  ( 0.0000000000000000000, 0.0000000000000000000, 3.000000000000000000 ) ) ;
#64 = DIRECTION ( 'NONE',  ( -0.0000000000000000000, -0.0000000000000000000, -1.000000000000000000 ) ) ;
#65 = AXIS2_PLACEMENT_3D ( 'NONE', #165, #23, #383 ) ;
#66 = CIRCLE ( 'NONE', #32, 0.2000000000000000944 ) ;
#67 = TOROIDAL_SURFACE ( 'NONE', #159, 8.700000000000001066, 0.2000000000000000111 ) ;
#68 =( GEOMETRIC_REPRESENTATION_CONTEXT ( 3 ) GLOBAL_UNCERTAINTY_ASSIGNED_CONTEXT ( ( #89 ) ) GLOBAL_UNIT_ASSIGNED_CONTEXT ( ( #240, #45, #271 ) ) REPRESENTATION_CONTEXT ( 'NONE', 'WORKASPACE' ) );
#69 = DIRECTION ( 'NONE',  ( 1.000000000000000000, 0.0000000000000000000, 0.0000000000000000000 ) ) ;
#70 = DIRECTION ( 'NONE',  ( -1.000000000000000000, 1.224646799147343593E-16, 0.0000000000000000000 ) ) ;
#71 = FILL_AREA_STYLE_COLOUR ( '', #385 ) ;
#72 = DIRECTION ( 'NONE',  ( 0.0000000000000000000, 0.0000000000000000000, 1.000000000000000000 ) ) ;
#73 = CIRCLE ( 'NONE', #152, 14.79999999999999893 ) ;
#74 = PLANE ( 'NONE',  #321 ) ;
#75 = EDGE_LOOP ( 'NONE', ( #372, #161, #377, #91 ) ) ;
#76 = AXIS2_PLACEMENT_3D ( 'NONE', #244, #14, #214 ) ;
#77 = DIRECTION ( 'NONE',  ( -0.0000000000000000000, -0.0000000000000000000, -1.000000000000000000 ) ) ;
#78 = DIRECTION ( 'NONE',  ( -1.000000000000000000, 1.224646799147353207E-16, 0.0000000000000000000 ) ) ;
#79 = DIRECTION ( 'NONE',  ( -1.000000000000000000, 1.224646799147353207E-16, 0.0000000000000000000 ) ) ;
#80 = VECTOR ( 'NONE', #193, 1000.000000000000000 ) ;
#81 = VERTEX_POINT ( 'NONE', #330 ) ;
#82 = DIRECTION ( 'NONE',  ( -0.0000000000000000000, -0.0000000000000000000, -1.000000000000000000 ) ) ;
#83 = DIRECTION ( 'NONE',  ( -0.0000000000000000000, -0.0000000000000000000, -1.000000000000000000 ) ) ;
#84 = EDGE_LOOP ( 'NONE', ( #105, #344 ) ) ;
#85 = PRODUCT_DEFINITION ( 'UNKNOWN', '', #114, #204 ) ;
#86 = PRODUCT ( 'M16 WASHER', 'M16 WASHER', '', ( #185 ) ) ;
#87 = ORIENTED_EDGE ( 'NONE', *, *, #227, .T. ) ;
#88 = ADVANCED_FACE ( 'NONE', ( #24 ), #332, .T. ) ;
#89 = UNCERTAINTY_MEASURE_WITH_UNIT (LENGTH_MEASURE( 1.000000000000000082E-05 ), #240, 'distance_accuracy_value', 'NONE');
#90 = AXIS2_PLACEMENT_3D ( 'NONE', #361, #128, #98 ) ;
#91 = ORIENTED_EDGE ( 'NONE', *, *, #7, .F. ) ;
#92 = ORIENTED_EDGE ( 'NONE', *, *, #26, .F. ) ;
#93 = DIRECTION ( 'NONE',  ( 0.0000000000000000000, 0.0000000000000000000, 1.000000000000000000 ) ) ;
#94 = AXIS2_PLACEMENT_3D ( 'NONE', #340, #312, #78 ) ;
#95 = ADVANCED_FACE ( 'NONE', ( #409 ), #183, .T. ) ;
#96 = DIRECTION ( 'NONE',  ( 1.000000000000000000, 0.0000000000000000000, 0.0000000000000000000 ) ) ;
#97 = ORIENTED_EDGE ( 'NONE', *, *, #365, .T. ) ;
#98 = DIRECTION ( 'NONE',  ( -1.000000000000000000, 0.0000000000000000000, 0.0000000000000000000 ) ) ;
#99 = FACE_OUTER_BOUND ( 'NONE', #269, .T. ) ;
#100 = CARTESIAN_POINT ( 'NONE',  ( 0.0000000000000000000, 0.0000000000000000000, 3.000000000000000000 ) ) ;
#101 =( NAMED_UNIT ( * ) PLANE_ANGLE_UNIT ( ) SI_UNIT ( $, .RADIAN. ) );
#102 = ADVANCED_BREP_SHAPE_REPRESENTATION ( 'M16 WASHER', ( #179, #65 ), #296 ) ;
#103 = ORIENTED_EDGE ( 'NONE', *, *, #290, .T. ) ;
#104 = AXIS2_PLACEMENT_3D ( 'NONE', #313, #115, #341 ) ;
#105 = ORIENTED_EDGE ( 'NONE', *, *, #257, .T. ) ;
#106 = DIRECTION ( 'NONE',  ( -1.000000000000000000, 0.0000000000000000000, 0.0000000000000000000 ) ) ;
#107 = DIRECTION ( 'NONE',  ( -1.000000000000000000, 1.224646799147343593E-16, 0.0000000000000000000 ) ) ;
#108 = CARTESIAN_POINT ( 'NONE',  ( 14.79999999999999893, 0.0000000000000000000, 0.0000000000000000000 ) ) ;
#109 = CARTESIAN_POINT ( 'NONE',  ( 8.500000000000000000, 1.040949779275250140E-15, 0.2000000000000000944 ) ) ;
#110 = DIRECTION ( 'NONE',  ( -1.000000000000000000, 0.0000000000000000000, 0.0000000000000000000 ) ) ;
#111 = SURFACE_STYLE_FILL_AREA ( #400 ) ;
#112 = DIRECTION ( 'NONE',  ( 0.0000000000000000000, -1.000000000000000000, 0.0000000000000000000 ) ) ;
#113 = ORIENTED_EDGE ( 'NONE', *, *, #306, .F. ) ;
#114 = PRODUCT_DEFINITION_FORMATION_WITH_SPECIFIED_SOURCE ( 'ANY', '', #86, .NOT_KNOWN. ) ;
#115 = DIRECTION ( 'NONE',  ( 0.0000000000000000000, 0.0000000000000000000, 1.000000000000000000 ) ) ;
#116 = CARTESIAN_POINT ( 'NONE',  ( -8.700000000000001066, 1.065442715258197446E-15, 2.799999999999999822 ) ) ;
#117 = AXIS2_PLACEMENT_3D ( 'NONE', #356, #93, #392 ) ;
#118 = DIRECTION ( 'NONE',  ( -0.0000000000000000000, -0.0000000000000000000, -1.000000000000000000 ) ) ;
#119 = VECTOR ( 'NONE', #83, 1000.000000000000000 ) ;
#120 = ORIENTED_EDGE ( 'NONE', *, *, #410, .F. ) ;
#121 = ORIENTED_EDGE ( 'NONE', *, *, #410, .T. ) ;
#122 = TOROIDAL_SURFACE ( 'NONE', #8, 8.700000000000001066, 0.2000000000000000111 ) ;
#123 = AXIS2_PLACEMENT_3D ( 'NONE', #171, #370, #143 ) ;
#124 = TOROIDAL_SURFACE ( 'NONE', #192, 8.700000000000001066, 0.2000000000000000111 ) ;
#125 = ORIENTED_EDGE ( 'NONE', *, *, #324, .F. ) ;
#126 = ORIENTED_EDGE ( 'NONE', *, *, #333, .F. ) ;
#127 = AXIS2_PLACEMENT_3D ( 'NONE', #407, #217, #16 ) ;
#128 = DIRECTION ( 'NONE',  ( -0.0000000000000000000, -0.0000000000000000000, -1.000000000000000000 ) ) ;
#129 = CIRCLE ( 'NONE', #12, 8.500000000000000000 ) ;
#130 = VERTEX_POINT ( 'NONE', #202 ) ;
#131 = PRESENTATION_STYLE_ASSIGNMENT (( #396 ) ) ;
#132 = PRODUCT_RELATED_PRODUCT_CATEGORY ( 'part', '', ( #86 ) ) ;
#133 = TOROIDAL_SURFACE ( 'NONE', #141, 14.79999999999999893, 0.2000000000000000111 ) ;
#134 = EDGE_CURVE ( 'NONE', #213, #153, #420, .T. ) ;
#135 = EDGE_LOOP ( 'NONE', ( #251, #220, #347, #180 ) ) ;
#136 = DIRECTION ( 'NONE',  ( -0.0000000000000000000, -0.0000000000000000000, -1.000000000000000000 ) ) ;
#137 = CARTESIAN_POINT ( 'NONE',  ( 8.500000000000000000, 1.040949779275250140E-15, 2.799999999999999822 ) ) ;
#138 = CARTESIAN_POINT ( 'NONE',  ( -14.79999999999999893, 1.812477262738082480E-15, 0.2000000000000000944 ) ) ;
#139 = CARTESIAN_POINT ( 'NONE',  ( 0.0000000000000000000, 0.0000000000000000000, 2.799999999999999822 ) ) ;
#140 = CARTESIAN_POINT ( 'NONE',  ( 14.79999999999999893, 0.0000000000000000000, 3.000000000000000000 ) ) ;
#141 = AXIS2_PLACEMENT_3D ( 'NONE', #405, #173, #274 ) ;
#142 = ORIENTED_EDGE ( 'NONE', *, *, #26, .T. ) ;
#143 = DIRECTION ( 'NONE',  ( 1.000000000000000000, 0.0000000000000000000, 0.0000000000000000000 ) ) ;
#144 = CARTESIAN_POINT ( 'NONE',  ( 0.0000000000000000000, 0.0000000000000000000, 0.2000000000000000944 ) ) ;
#145 = FACE_OUTER_BOUND ( 'NONE', #363, .T. ) ;
#146 = AXIS2_PLACEMENT_3D ( 'NONE', #205, #5, #106 ) ;
#147 = CLOSED_SHELL ( 'NONE', ( #35, #362, #329, #285, #226, #95, #416, #62, #157, #30, #156, #149, #88, #194 ) ) ;
#148 = ORIENTED_EDGE ( 'NONE', *, *, #230, .T. ) ;
#149 = ADVANCED_FACE ( 'NONE', ( #245 ), #288, .T. ) ;
#150 = ORIENTED_EDGE ( 'NONE', *, *, #279, .T. ) ;
#151 = APPLICATION_PROTOCOL_DEFINITION ( 'draft international standard', 'automotive_design', 1998, #351 ) ;
#152 = AXIS2_PLACEMENT_3D ( 'NONE', #63, #295, #69 ) ;
#153 = VERTEX_POINT ( 'NONE', #335 ) ;
#154 = VERTEX_POINT ( 'NONE', #137 ) ;
#155 = AXIS2_PLACEMENT_3D ( 'NONE', #308, #77, #272 ) ;
#156 = ADVANCED_FACE ( 'NONE', ( #145 ), #124, .T. ) ;
#157 = ADVANCED_FACE ( 'NONE', ( #352 ), #47, .T. ) ;
#158 = CIRCLE ( 'NONE', #254, 8.500000000000000000 ) ;
#159 = AXIS2_PLACEMENT_3D ( 'NONE', #390, #417, #96 ) ;
#160 = FACE_OUTER_BOUND ( 'NONE', #84, .T. ) ;
#161 = ORIENTED_EDGE ( 'NONE', *, *, #198, .T. ) ;
#162 = DIRECTION ( 'NONE',  ( 1.000000000000000000, 0.0000000000000000000, 0.0000000000000000000 ) ) ;
#163 =( LENGTH_UNIT ( ) NAMED_UNIT ( * ) SI_UNIT ( .MILLI., .METRE. ) );
#164 = DIRECTION ( 'NONE',  ( 0.0000000000000000000, 0.0000000000000000000, 1.000000000000000000 ) ) ;
#165 = CARTESIAN_POINT ( 'NONE',  ( 0.0000000000000000000, 0.0000000000000000000, 0.0000000000000000000 ) ) ;
#166 = AXIS2_PLACEMENT_3D ( 'NONE', #373, #172, #404 ) ;
#167 = CARTESIAN_POINT ( 'NONE',  ( 0.0000000000000000000, 0.0000000000000000000, 0.2000000000000000944 ) ) ;
#168 = DIRECTION ( 'NONE',  ( 0.0000000000000000000, 0.0000000000000000000, -1.000000000000000000 ) ) ;
#169 = EDGE_LOOP ( 'NONE', ( #53, #36, #327, #181 ) ) ;
#170 = DIRECTION ( 'NONE',  ( 1.000000000000000000, 0.0000000000000000000, 0.0000000000000000000 ) ) ;
#171 = CARTESIAN_POINT ( 'NONE',  ( 0.0000000000000000000, 0.0000000000000000000, 2.799999999999999822 ) ) ;
#172 = DIRECTION ( 'NONE',  ( 0.0000000000000000000, -1.000000000000000000, 0.0000000000000000000 ) ) ;
#173 = DIRECTION ( 'NONE',  ( 0.0000000000000000000, 0.0000000000000000000, 1.000000000000000000 ) ) ;
#174 = COLOUR_RGB ( '',0.7921568627450980005, 0.8196078431372548767, 0.9333333333333333481 ) ;
#175 = EDGE_LOOP ( 'NONE', ( #297, #103, #262, #87 ) ) ;
#176 = DIRECTION ( 'NONE',  ( 1.000000000000000000, 0.0000000000000000000, 0.0000000000000000000 ) ) ;
#177 = EDGE_CURVE ( 'NONE', #391, #154, #129, .T. ) ;
#178 = CARTESIAN_POINT ( 'NONE',  ( 0.0000000000000000000, 0.0000000000000000000, 0.2000000000000000944 ) ) ;
#179 = MANIFOLD_SOLID_BREP ( 'Fillet1', #147 ) ;
#180 = ORIENTED_EDGE ( 'NONE', *, *, #345, .T. ) ;
#181 = ORIENTED_EDGE ( 'NONE', *, *, #318, .F. ) ;
#182 = AXIS2_PLACEMENT_3D ( 'NONE', #270, #44, #239 ) ;
#183 = CYLINDRICAL_SURFACE ( 'NONE', #310, 15.00000000000000000 ) ;
#184 = EDGE_LOOP ( 'NONE', ( #289, #284, #348, #201 ) ) ;
#185 = PRODUCT_CONTEXT ( 'NONE', #233, 'mechanical' ) ;
#186 = VERTEX_POINT ( 'NONE', #108 ) ;
#187 = LINE ( 'NONE', #207, #359 ) ;
#188 = ORIENTED_EDGE ( 'NONE', *, *, #301, .T. ) ;
#189 = AXIS2_PLACEMENT_3D ( 'NONE', #307, #72, #339 ) ;
#190 = AXIS2_PLACEMENT_3D ( 'NONE', #402, #311, #110 ) ;
#191 = UNCERTAINTY_MEASURE_WITH_UNIT (LENGTH_MEASURE( 1.000000000000000082E-05 ), #163, 'distance_accuracy_value', 'NONE');
#192 = AXIS2_PLACEMENT_3D ( 'NONE', #167, #37, #399 ) ;
#193 = DIRECTION ( 'NONE',  ( -0.0000000000000000000, -0.0000000000000000000, -1.000000000000000000 ) ) ;
#194 = ADVANCED_FACE ( 'NONE', ( #3 ), #34, .T. ) ;
#195 = CIRCLE ( 'NONE', #117, 8.700000000000001066 ) ;
#196 = ORIENTED_EDGE ( 'NONE', *, *, #279, .F. ) ;
#197 = EDGE_CURVE ( 'NONE', #228, #186, #13, .T. ) ;
#198 = EDGE_CURVE ( 'NONE', #401, #322, #325, .T. ) ;
#199 = SURFACE_SIDE_STYLE ('',( #225 ) ) ;
#200 = FACE_OUTER_BOUND ( 'NONE', #135, .T. ) ;
#201 = ORIENTED_EDGE ( 'NONE', *, *, #215, .F. ) ;
#202 = CARTESIAN_POINT ( 'NONE',  ( 8.700000000000001066, 0.0000000000000000000, 4.065758146820641628E-17 ) ) ;
#203 = DIRECTION ( 'NONE',  ( 0.0000000000000000000, 0.0000000000000000000, 1.000000000000000000 ) ) ;
#204 = PRODUCT_DEFINITION_CONTEXT ( 'detailed design', #351, 'design' ) ;
#205 = CARTESIAN_POINT ( 'NONE',  ( 0.0000000000000000000, 0.0000000000000000000, 3.000000000000000000 ) ) ;
#206 = SURFACE_SIDE_STYLE ('',( #111 ) ) ;
#207 = CARTESIAN_POINT ( 'NONE',  ( 8.500000000000000000, 1.040949779275250140E-15, 3.000000000000000000 ) ) ;
#208 = CIRCLE ( 'NONE', #253, 0.2000000000000000111 ) ;
#209 = CIRCLE ( 'NONE', #104, 15.00000000000000000 ) ;
#210 = AXIS2_PLACEMENT_3D ( 'NONE', #212, #46, #10 ) ;
#211 = CARTESIAN_POINT ( 'NONE',  ( 15.00000000000000000, 1.836970198721029589E-15, 3.000000000000000000 ) ) ;
#212 = CARTESIAN_POINT ( 'NONE',  ( 0.0000000000000000000, 0.0000000000000000000, 2.799999999999999822 ) ) ;
#213 = VERTEX_POINT ( 'NONE', #273 ) ;
#214 = DIRECTION ( 'NONE',  ( 1.000000000000000000, 0.0000000000000000000, 0.0000000000000000000 ) ) ;
#215 = EDGE_CURVE ( 'NONE', #401, #386, #342, .T. ) ;
#216 = CIRCLE ( 'NONE', #182, 0.2000000000000000111 ) ;
#217 = DIRECTION ( 'NONE',  ( -0.0000000000000000000, -0.0000000000000000000, -1.000000000000000000 ) ) ;
#218 =( NAMED_UNIT ( * ) PLANE_ANGLE_UNIT ( ) SI_UNIT ( $, .RADIAN. ) );
#219 = CIRCLE ( 'NONE', #326, 15.00000000000000000 ) ;
#220 = ORIENTED_EDGE ( 'NONE', *, *, #333, .T. ) ;
#221 = DIRECTION ( 'NONE',  ( -0.0000000000000000000, -0.0000000000000000000, -1.000000000000000000 ) ) ;
#222 = AXIS2_PLACEMENT_3D ( 'NONE', #11, #243, #49 ) ;
#223 = CIRCLE ( 'NONE', #57, 0.2000000000000005107 ) ;
#224 = EDGE_LOOP ( 'NONE', ( #25, #97, #421, #302 ) ) ;
#225 = SURFACE_STYLE_FILL_AREA ( #2 ) ;
#226 = ADVANCED_FACE ( 'NONE', ( #380 ), #393, .F. ) ;
#227 = EDGE_CURVE ( 'NONE', #319, #322, #209, .T. ) ;
#228 = VERTEX_POINT ( 'NONE', #277 ) ;
#229 = AXIS2_PLACEMENT_3D ( 'NONE', #138, #336, #107 ) ;
#230 = EDGE_CURVE ( 'NONE', #81, #40, #275, .T. ) ;
#231 = CYLINDRICAL_SURFACE ( 'NONE', #90, 8.500000000000000000 ) ;
#232 = DIRECTION ( 'NONE',  ( 0.0000000000000000000, 0.0000000000000000000, 1.000000000000000000 ) ) ;
#233 = APPLICATION_CONTEXT ( 'automotive_design' ) ;
#234 = CARTESIAN_POINT ( 'NONE',  ( 0.0000000000000000000, 0.0000000000000000000, 0.2000000000000000944 ) ) ;
#235 = DIRECTION ( 'NONE',  ( 0.0000000000000000000, 0.0000000000000000000, -1.000000000000000000 ) ) ;
#236 = EDGE_CURVE ( 'NONE', #354, #353, #158, .T. ) ;
#237 = AXIS2_PLACEMENT_3D ( 'NONE', #299, #64, #331 ) ;
#238 = FILL_AREA_STYLE_COLOUR ( '', #174 ) ;
#239 = DIRECTION ( 'NONE',  ( 0.0000000000000000000, 0.0000000000000000000, -1.000000000000000000 ) ) ;
#240 =( LENGTH_UNIT ( ) NAMED_UNIT ( * ) SI_UNIT ( .MILLI., .METRE. ) );
#241 = DIRECTION ( 'NONE',  ( -0.0000000000000000000, -0.0000000000000000000, -1.000000000000000000 ) ) ;
#242 = STYLED_ITEM ( 'NONE', ( #58 ), #179 ) ;
#243 = DIRECTION ( 'NONE',  ( -0.0000000000000000000, -0.0000000000000000000, -1.000000000000000000 ) ) ;
#244 = CARTESIAN_POINT ( 'NONE',  ( 0.0000000000000000000, 0.0000000000000000000, 3.000000000000000000 ) ) ;
#245 = FACE_OUTER_BOUND ( 'NONE', #15, .T. ) ;
#246 = DIRECTION ( 'NONE',  ( -0.0000000000000000000, -0.0000000000000000000, -1.000000000000000000 ) ) ;
#247 = EDGE_CURVE ( 'NONE', #322, #319, #219, .T. ) ;
#248 = DIRECTION ( 'NONE',  ( 0.0000000000000000000, 0.0000000000000000000, 1.000000000000000000 ) ) ;
#249 =( NAMED_UNIT ( * ) SI_UNIT ( $, .STERADIAN. ) SOLID_ANGLE_UNIT ( ) );
#250 = DIRECTION ( 'NONE',  ( 1.000000000000000000, 0.0000000000000000000, 0.0000000000000000000 ) ) ;
#251 = ORIENTED_EDGE ( 'NONE', *, *, #365, .F. ) ;
#252 = ORIENTED_EDGE ( 'NONE', *, *, #236, .F. ) ;
#253 = AXIS2_PLACEMENT_3D ( 'NONE', #268, #43, #235 ) ;
#254 = AXIS2_PLACEMENT_3D ( 'NONE', #280, #82, #315 ) ;
#255 = EDGE_CURVE ( 'NONE', #40, #81, #19, .T. ) ;
#256 = ORIENTED_EDGE ( 'NONE', *, *, #388, .F. ) ;
#257 = EDGE_CURVE ( 'NONE', #186, #228, #419, .T. ) ;
#258 = ORIENTED_EDGE ( 'NONE', *, *, #324, .T. ) ;
#259 = CARTESIAN_POINT ( 'NONE',  ( 8.700000000000001066, 0.0000000000000000000, 3.000000000000000000 ) ) ;
#260 = CARTESIAN_POINT ( 'NONE',  ( 0.0000000000000000000, 0.0000000000000000000, 0.0000000000000000000 ) ) ;
#261 = FACE_BOUND ( 'NONE', #320, .T. ) ;
#262 = ORIENTED_EDGE ( 'NONE', *, *, #7, .T. ) ;
#263 = EDGE_CURVE ( 'NONE', #391, #353, #286, .T. ) ;
#264 = DIRECTION ( 'NONE',  ( 0.0000000000000000000, 0.0000000000000000000, 1.000000000000000000 ) ) ;
#265 = APPLICATION_PROTOCOL_DEFINITION ( 'draft international standard', 'automotive_design', 1998, #233 ) ;
#266 = DIRECTION ( 'NONE',  ( 1.224646799147353207E-16, 1.000000000000000000, -0.0000000000000000000 ) ) ;
#267 = ORIENTED_EDGE ( 'NONE', *, *, #306, .T. ) ;
#268 = CARTESIAN_POINT ( 'NONE',  ( 14.79999999999999893, 0.0000000000000000000, 0.2000000000000000944 ) ) ;
#269 = EDGE_LOOP ( 'NONE', ( #4, #258, #92, #256 ) ) ;
#270 = CARTESIAN_POINT ( 'NONE',  ( 8.700000000000001066, 0.0000000000000000000, 0.2000000000000000944 ) ) ;
#271 =( NAMED_UNIT ( * ) SI_UNIT ( $, .STERADIAN. ) SOLID_ANGLE_UNIT ( ) );
#272 = DIRECTION ( 'NONE',  ( 1.000000000000000000, 0.0000000000000000000, 0.0000000000000000000 ) ) ;
#273 = CARTESIAN_POINT ( 'NONE',  ( -15.00000000000000000, 0.0000000000000000000, 2.799999999999999822 ) ) ;
#274 = DIRECTION ( 'NONE',  ( 1.000000000000000000, 0.0000000000000000000, 0.0000000000000000000 ) ) ;
#275 = CIRCLE ( 'NONE', #127, 8.700000000000001066 ) ;
#276 = EDGE_LOOP ( 'NONE', ( #21, #283 ) ) ;
#277 = CARTESIAN_POINT ( 'NONE',  ( -14.79999999999999893, 1.824723730729555837E-15, 0.0000000000000000000 ) ) ;
#278 = CARTESIAN_POINT ( 'NONE',  ( 15.00000000000000000, 1.836970198721029589E-15, 0.2000000000000000944 ) ) ;
#279 = EDGE_CURVE ( 'NONE', #415, #130, #38, .T. ) ;
#280 = CARTESIAN_POINT ( 'NONE',  ( 0.0000000000000000000, 0.0000000000000000000, 0.2000000000000000944 ) ) ;
#281 = CARTESIAN_POINT ( 'NONE',  ( -8.500000000000000000, 0.0000000000000000000, 3.000000000000000000 ) ) ;
#282 = DIRECTION ( 'NONE',  ( 1.000000000000000000, 0.0000000000000000000, 0.0000000000000000000 ) ) ;
#283 = ORIENTED_EDGE ( 'NONE', *, *, #318, .T. ) ;
#284 = ORIENTED_EDGE ( 'NONE', *, *, #134, .T. ) ;
#285 = ADVANCED_FACE ( 'NONE', ( #99 ), #122, .T. ) ;
#286 = LINE ( 'NONE', #281, #119 ) ;
#287 = AXIS2_PLACEMENT_3D ( 'NONE', #234, #164, #304 ) ;
#288 = TOROIDAL_SURFACE ( 'NONE', #287, 14.79999999999999893, 0.2000000000000000111 ) ;
#289 = ORIENTED_EDGE ( 'NONE', *, *, #31, .F. ) ;
#290 = EDGE_CURVE ( 'NONE', #401, #213, #379, .T. ) ;
#291 = ORIENTED_EDGE ( 'NONE', *, *, #197, .F. ) ;
#292 = FACE_OUTER_BOUND ( 'NONE', #61, .T. ) ;
#293 = PLANE ( 'NONE',  #60 ) ;
#294 = FACE_OUTER_BOUND ( 'NONE', #413, .T. ) ;
#295 = DIRECTION ( 'NONE',  ( 0.0000000000000000000, 0.0000000000000000000, 1.000000000000000000 ) ) ;
#296 =( GEOMETRIC_REPRESENTATION_CONTEXT ( 3 ) GLOBAL_UNCERTAINTY_ASSIGNED_CONTEXT ( ( #378 ) ) GLOBAL_UNIT_ASSIGNED_CONTEXT ( ( #334, #101, #303 ) ) REPRESENTATION_CONTEXT ( 'NONE', 'WORKASPACE' ) );
#297 = ORIENTED_EDGE ( 'NONE', *, *, #198, .F. ) ;
#298 = FACE_BOUND ( 'NONE', #317, .T. ) ;
#299 = CARTESIAN_POINT ( 'NONE',  ( 0.0000000000000000000, 0.0000000000000000000, 2.799999999999999822 ) ) ;
#300 = CIRCLE ( 'NONE', #229, 0.2000000000000005107 ) ;
#301 = EDGE_CURVE ( 'NONE', #40, #154, #66, .T. ) ;
#302 = ORIENTED_EDGE ( 'NONE', *, *, #263, .F. ) ;
#303 =( NAMED_UNIT ( * ) SI_UNIT ( $, .STERADIAN. ) SOLID_ANGLE_UNIT ( ) );
#304 = DIRECTION ( 'NONE',  ( 1.000000000000000000, 0.0000000000000000000, 0.0000000000000000000 ) ) ;
#305 = CARTESIAN_POINT ( 'NONE',  ( 0.0000000000000000000, 0.0000000000000000000, 3.000000000000000000 ) ) ;
#306 = EDGE_CURVE ( 'NONE', #81, #391, #223, .T. ) ;
#307 = CARTESIAN_POINT ( 'NONE',  ( 0.0000000000000000000, 0.0000000000000000000, 2.799999999999999822 ) ) ;
#308 = CARTESIAN_POINT ( 'NONE',  ( 0.0000000000000000000, 0.0000000000000000000, 0.2000000000000000944 ) ) ;
#309 = ORIENTED_EDGE ( 'NONE', *, *, #388, .T. ) ;
#310 = AXIS2_PLACEMENT_3D ( 'NONE', #100, #136, #1 ) ;
#311 = DIRECTION ( 'NONE',  ( -0.0000000000000000000, -0.0000000000000000000, -1.000000000000000000 ) ) ;
#312 = DIRECTION ( 'NONE',  ( 1.224646799147353207E-16, 1.000000000000000000, -0.0000000000000000000 ) ) ;
#313 = CARTESIAN_POINT ( 'NONE',  ( 0.0000000000000000000, 0.0000000000000000000, 0.2000000000000000944 ) ) ;
#314 = DIRECTION ( 'NONE',  ( 1.224646799147353207E-16, 1.000000000000000000, -0.0000000000000000000 ) ) ;
#315 = DIRECTION ( 'NONE',  ( 1.000000000000000000, 0.0000000000000000000, 0.0000000000000000000 ) ) ;
#316 = CARTESIAN_POINT ( 'NONE',  ( 0.0000000000000000000, 0.0000000000000000000, 0.0000000000000000000 ) ) ;
#317 = EDGE_LOOP ( 'NONE', ( #355, #148 ) ) ;
#318 = EDGE_CURVE ( 'NONE', #153, #386, #406, .T. ) ;
#319 = VERTEX_POINT ( 'NONE', #343 ) ;
#320 = EDGE_LOOP ( 'NONE', ( #142, #150 ) ) ;
#321 = AXIS2_PLACEMENT_3D ( 'NONE', #305, #203, #398 ) ;
#322 = VERTEX_POINT ( 'NONE', #278 ) ;
#323 = CIRCLE ( 'NONE', #123, 8.500000000000000000 ) ;
#324 = EDGE_CURVE ( 'NONE', #353, #415, #51, .T. ) ;
#325 = LINE ( 'NONE', #211, #371 ) ;
#326 = AXIS2_PLACEMENT_3D ( 'NONE', #144, #374, #176 ) ;
#327 = ORIENTED_EDGE ( 'NONE', *, *, #215, .T. ) ;
#328 = CARTESIAN_POINT ( 'NONE',  ( -15.00000000000000000, 0.0000000000000000000, 3.000000000000000000 ) ) ;
#329 = ADVANCED_FACE ( 'NONE', ( #292 ), #133, .T. ) ;
#330 = CARTESIAN_POINT ( 'NONE',  ( -8.700000000000001066, 1.065442715258197446E-15, 3.000000000000000000 ) ) ;
#331 = DIRECTION ( 'NONE',  ( 1.000000000000000000, 0.0000000000000000000, 0.0000000000000000000 ) ) ;
#332 = TOROIDAL_SURFACE ( 'NONE', #41, 14.79999999999999893, 0.2000000000000000111 ) ;
#333 = EDGE_CURVE ( 'NONE', #154, #391, #323, .T. ) ;
#334 =( LENGTH_UNIT ( ) NAMED_UNIT ( * ) SI_UNIT ( .MILLI., .METRE. ) );
#335 = CARTESIAN_POINT ( 'NONE',  ( -14.79999999999999893, 1.824723730729555837E-15, 3.000000000000000000 ) ) ;
#336 = DIRECTION ( 'NONE',  ( 1.224646799147353207E-16, 1.000000000000000000, -0.0000000000000000000 ) ) ;
#337 = ORIENTED_EDGE ( 'NONE', *, *, #257, .F. ) ;
#338 = CARTESIAN_POINT ( 'NONE',  ( 15.00000000000000000, 1.836970198721029589E-15, 2.799999999999999822 ) ) ;
#339 = DIRECTION ( 'NONE',  ( 1.000000000000000000, 0.0000000000000000000, 0.0000000000000000000 ) ) ;
#340 = CARTESIAN_POINT ( 'NONE',  ( -8.700000000000001066, 1.065442715258197446E-15, 0.2000000000000000944 ) ) ;
#341 = DIRECTION ( 'NONE',  ( 1.000000000000000000, 0.0000000000000000000, 0.0000000000000000000 ) ) ;
#342 = CIRCLE ( 'NONE', #166, 0.2000000000000000944 ) ;
#343 = CARTESIAN_POINT ( 'NONE',  ( -15.00000000000000000, 0.0000000000000000000, 0.2000000000000000944 ) ) ;
#344 = ORIENTED_EDGE ( 'NONE', *, *, #197, .T. ) ;
#345 = EDGE_CURVE ( 'NONE', #353, #354, #384, .T. ) ;
#346 = DIRECTION ( 'NONE',  ( 1.000000000000000000, 0.0000000000000000000, 0.0000000000000000000 ) ) ;
#347 = ORIENTED_EDGE ( 'NONE', *, *, #263, .T. ) ;
#348 = ORIENTED_EDGE ( 'NONE', *, *, #56, .F. ) ;
#349 = AXIS2_PLACEMENT_3D ( 'NONE', #17, #246, #52 ) ;
#350 = ORIENTED_EDGE ( 'NONE', *, *, #227, .F. ) ;
#351 = APPLICATION_CONTEXT ( 'automotive_design' ) ;
#352 = FACE_OUTER_BOUND ( 'NONE', #175, .T. ) ;
#353 = VERTEX_POINT ( 'NONE', #50 ) ;
#354 = VERTEX_POINT ( 'NONE', #109 ) ;
#355 = ORIENTED_EDGE ( 'NONE', *, *, #255, .T. ) ;
#356 = CARTESIAN_POINT ( 'NONE',  ( 0.0000000000000000000, 0.0000000000000000000, 0.0000000000000000000 ) ) ;
#357 = STYLED_ITEM ( 'NONE', ( #131 ), #102 ) ;
#358 = ORIENTED_EDGE ( 'NONE', *, *, #414, .T. ) ;
#359 = VECTOR ( 'NONE', #241, 1000.000000000000000 ) ;
#360 = SHAPE_DEFINITION_REPRESENTATION ( #387, #102 ) ;
#361 = CARTESIAN_POINT ( 'NONE',  ( 0.0000000000000000000, 0.0000000000000000000, 3.000000000000000000 ) ) ;
#362 = ADVANCED_FACE ( 'NONE', ( #375 ), #27, .T. ) ;
#363 = EDGE_LOOP ( 'NONE', ( #125, #252, #309, #196 ) ) ;
#364 = ORIENTED_EDGE ( 'NONE', *, *, #414, .F. ) ;
#365 = EDGE_CURVE ( 'NONE', #154, #354, #187, .T. ) ;
#366 = AXIS2_PLACEMENT_3D ( 'NONE', #316, #118, #346 ) ;
#367 = DIRECTION ( 'NONE',  ( 0.0000000000000000000, 0.0000000000000000000, 1.000000000000000000 ) ) ;
#368 = CARTESIAN_POINT ( 'NONE',  ( -8.500000000000000000, 0.0000000000000000000, 2.799999999999999822 ) ) ;
#369 = DIRECTION ( 'NONE',  ( -0.0000000000000000000, -0.0000000000000000000, -1.000000000000000000 ) ) ;
#370 = DIRECTION ( 'NONE',  ( 0.0000000000000000000, 0.0000000000000000000, 1.000000000000000000 ) ) ;
#371 = VECTOR ( 'NONE', #369, 1000.000000000000000 ) ;
#372 = ORIENTED_EDGE ( 'NONE', *, *, #31, .T. ) ;
#373 = CARTESIAN_POINT ( 'NONE',  ( 14.79999999999999893, 0.0000000000000000000, 2.799999999999999822 ) ) ;
#374 = DIRECTION ( 'NONE',  ( 0.0000000000000000000, 0.0000000000000000000, 1.000000000000000000 ) ) ;
#375 = FACE_OUTER_BOUND ( 'NONE', #184, .T. ) ;
#376 = MECHANICAL_DESIGN_GEOMETRIC_PRESENTATION_REPRESENTATION (  '', ( #242 ), #68 ) ;
#377 = ORIENTED_EDGE ( 'NONE', *, *, #247, .T. ) ;
#378 = UNCERTAINTY_MEASURE_WITH_UNIT (LENGTH_MEASURE( 1.000000000000000082E-05 ), #334, 'distance_accuracy_value', 'NONE');
#379 = CIRCLE ( 'NONE', #412, 15.00000000000000000 ) ;
#380 = FACE_OUTER_BOUND ( 'NONE', #224, .T. ) ;
#381 = ORIENTED_EDGE ( 'NONE', *, *, #230, .F. ) ;
#382 = PRESENTATION_LAYER_ASSIGNMENT (  '', '', ( #357 ) ) ;
#383 = DIRECTION ( 'NONE',  ( 1.000000000000000000, 0.0000000000000000000, 0.0000000000000000000 ) ) ;
#384 = CIRCLE ( 'NONE', #155, 8.500000000000000000 ) ;
#385 = COLOUR_RGB ( '',0.7921568627450980005, 0.8196078431372548767, 0.9333333333333333481 ) ;
#386 = VERTEX_POINT ( 'NONE', #140 ) ;
#387 = PRODUCT_DEFINITION_SHAPE ( 'NONE', 'NONE',  #85 ) ;
#388 = EDGE_CURVE ( 'NONE', #354, #130, #216, .T. ) ;
#389 = AXIS2_PLACEMENT_3D ( 'NONE', #18, #248, #54 ) ;
#390 = CARTESIAN_POINT ( 'NONE',  ( 0.0000000000000000000, 0.0000000000000000000, 2.799999999999999822 ) ) ;
#391 = VERTEX_POINT ( 'NONE', #368 ) ;
#392 = DIRECTION ( 'NONE',  ( 1.000000000000000000, 0.0000000000000000000, 0.0000000000000000000 ) ) ;
#393 = CYLINDRICAL_SURFACE ( 'NONE', #190, 8.500000000000000000 ) ;
#394 = CIRCLE ( 'NONE', #237, 15.00000000000000000 ) ;
#395 = CARTESIAN_POINT ( 'NONE',  ( 0.0000000000000000000, 0.0000000000000000000, 2.799999999999999822 ) ) ;
#396 = SURFACE_STYLE_USAGE ( .BOTH. , #199 ) ;
#397 = PRESENTATION_LAYER_ASSIGNMENT (  '', '', ( #242 ) ) ;
#398 = DIRECTION ( 'NONE',  ( 1.000000000000000000, 0.0000000000000000000, -0.0000000000000000000 ) ) ;
#399 = DIRECTION ( 'NONE',  ( 1.000000000000000000, 0.0000000000000000000, 0.0000000000000000000 ) ) ;
#400 = FILL_AREA_STYLE ('',( #238 ) ) ;
#401 = VERTEX_POINT ( 'NONE', #338 ) ;
#402 = CARTESIAN_POINT ( 'NONE',  ( 0.0000000000000000000, 0.0000000000000000000, 3.000000000000000000 ) ) ;
#403 = MECHANICAL_DESIGN_GEOMETRIC_PRESENTATION_REPRESENTATION (  '', ( #357 ), #418 ) ;
#404 = DIRECTION ( 'NONE',  ( 0.0000000000000000000, 0.0000000000000000000, -1.000000000000000000 ) ) ;
#405 = CARTESIAN_POINT ( 'NONE',  ( 0.0000000000000000000, 0.0000000000000000000, 0.2000000000000000944 ) ) ;
#406 = CIRCLE ( 'NONE', #76, 14.79999999999999893 ) ;
#407 = CARTESIAN_POINT ( 'NONE',  ( 0.0000000000000000000, 0.0000000000000000000, 3.000000000000000000 ) ) ;
#408 = CARTESIAN_POINT ( 'NONE',  ( 8.700000000000001066, 0.0000000000000000000, 2.799999999999999822 ) ) ;
#409 = FACE_OUTER_BOUND ( 'NONE', #75, .T. ) ;
#410 = EDGE_CURVE ( 'NONE', #228, #319, #300, .T. ) ;
#411 = DIRECTION ( 'NONE',  ( 0.0000000000000000000, 0.0000000000000000000, 1.000000000000000000 ) ) ;
#412 = AXIS2_PLACEMENT_3D ( 'NONE', #55, #221, #250 ) ;
#413 = EDGE_LOOP ( 'NONE', ( #381, #267, #126, #59 ) ) ;
#414 = EDGE_CURVE ( 'NONE', #186, #322, #208, .T. ) ;
#415 = VERTEX_POINT ( 'NONE', #6 ) ;
#416 = ADVANCED_FACE ( 'NONE', ( #422, #298 ), #74, .T. ) ;
#417 = DIRECTION ( 'NONE',  ( 0.0000000000000000000, 0.0000000000000000000, 1.000000000000000000 ) ) ;
#418 =( GEOMETRIC_REPRESENTATION_CONTEXT ( 3 ) GLOBAL_UNCERTAINTY_ASSIGNED_CONTEXT ( ( #191 ) ) GLOBAL_UNIT_ASSIGNED_CONTEXT ( ( #163, #218, #249 ) ) REPRESENTATION_CONTEXT ( 'NONE', 'WORKASPACE' ) );
#419 = CIRCLE ( 'NONE', #366, 14.79999999999999893 ) ;
#420 = CIRCLE ( 'NONE', #20, 0.2000000000000005107 ) ;
#421 = ORIENTED_EDGE ( 'NONE', *, *, #236, .T. ) ;
#422 = FACE_OUTER_BOUND ( 'NONE', #276, .T. ) ;
ENDSEC;
END-ISO-10303-21;
