ISO-10303-21;
HEADER;
FILE_DESCRIPTION (( 'STEP AP214' ),
    '1' );
FILE_NAME ('M6 WASHER.STEP',
    '2021-06-13T07:39:36',
    ( '' ),
    ( '' ),
    'SwSTEP 2.0',
    'SolidWorks 2018',
    '' );
FILE_SCHEMA (( 'AUTOMOTIVE_DESIGN' ));
ENDSEC;

DATA;
#1 = FILL_AREA_STYLE ('',( #363 ) ) ;
#2 = PLANE ( 'NONE',  #8 ) ;
#3 = VERTEX_POINT ( 'NONE', #182 ) ;
#4 = ORIENTED_EDGE ( 'NONE', *, *, #298, .T. ) ;
#5 = COLOUR_RGB ( '',0.7921568627450980005, 0.8196078431372548767, 0.9333333333333333481 ) ;
#6 = DIRECTION ( 'NONE',  ( 1.000000000000000000, 0.0000000000000000000, 0.0000000000000000000 ) ) ;
#7 = VERTEX_POINT ( 'NONE', #175 ) ;
#8 = AXIS2_PLACEMENT_3D ( 'NONE', #327, #266, #36 ) ;
#9 = SURFACE_SIDE_STYLE ('',( #345 ) ) ;
#10 = DIRECTION ( 'NONE',  ( 1.000000000000000000, 0.0000000000000000000, 0.0000000000000000000 ) ) ;
#11 = VERTEX_POINT ( 'NONE', #397 ) ;
#12 = DIRECTION ( 'NONE',  ( 1.224646799147353207E-16, 1.000000000000000000, -0.0000000000000000000 ) ) ;
#13 = MANIFOLD_SOLID_BREP ( 'Fillet4', #179 ) ;
#14 = TOROIDAL_SURFACE ( 'NONE', #156, 3.400000000000000355, 0.2000000000000000111 ) ;
#15 = ADVANCED_FACE ( 'NONE', ( #338 ), #277, .T. ) ;
#16 = DIRECTION ( 'NONE',  ( 1.000000000000000000, 0.0000000000000000000, 0.0000000000000000000 ) ) ;
#17 = CARTESIAN_POINT ( 'NONE',  ( 3.400000000000000355, 0.0000000000000000000, 0.2000000000000000944 ) ) ;
#18 = DIRECTION ( 'NONE',  ( 0.0000000000000000000, 0.0000000000000000000, 1.000000000000000000 ) ) ;
#19 = AXIS2_PLACEMENT_3D ( 'NONE', #246, #18, #220 ) ;
#20 = ORIENTED_EDGE ( 'NONE', *, *, #253, .F. ) ;
#21 = ORIENTED_EDGE ( 'NONE', *, *, #87, .F. ) ;
#22 = ADVANCED_FACE ( 'NONE', ( #90 ), #199, .T. ) ;
#23 = SURFACE_STYLE_FILL_AREA ( #1 ) ;
#24 = EDGE_CURVE ( 'NONE', #276, #11, #264, .T. ) ;
#25 = FACE_OUTER_BOUND ( 'NONE', #383, .T. ) ;
#26 = EDGE_LOOP ( 'NONE', ( #198, #311, #21, #197 ) ) ;
#27 = FACE_OUTER_BOUND ( 'NONE', #254, .T. ) ;
#28 = PRESENTATION_LAYER_ASSIGNMENT (  '', '', ( #422 ) ) ;
#29 = FACE_OUTER_BOUND ( 'NONE', #81, .T. ) ;
#30 = ORIENTED_EDGE ( 'NONE', *, *, #93, .F. ) ;
#31 = VECTOR ( 'NONE', #211, 1000.000000000000000 ) ;
#32 = AXIS2_PLACEMENT_3D ( 'NONE', #263, #35, #233 ) ;
#33 = ORIENTED_EDGE ( 'NONE', *, *, #298, .F. ) ;
#34 = CARTESIAN_POINT ( 'NONE',  ( 0.0000000000000000000, 0.0000000000000000000, 0.0000000000000000000 ) ) ;
#35 = DIRECTION ( 'NONE',  ( 1.224646799147353207E-16, 1.000000000000000000, -0.0000000000000000000 ) ) ;
#36 = DIRECTION ( 'NONE',  ( 1.000000000000000000, 0.0000000000000000000, -0.0000000000000000000 ) ) ;
#37 = VERTEX_POINT ( 'NONE', #173 ) ;
#38 = DIRECTION ( 'NONE',  ( -0.0000000000000000000, -0.0000000000000000000, -1.000000000000000000 ) ) ;
#39 = DIRECTION ( 'NONE',  ( -0.0000000000000000000, -0.0000000000000000000, -1.000000000000000000 ) ) ;
#40 = TOROIDAL_SURFACE ( 'NONE', #79, 5.800000000000001599, 0.2000000000000000111 ) ;
#41 = AXIS2_PLACEMENT_3D ( 'NONE', #376, #154, #339 ) ;
#42 = DIRECTION ( 'NONE',  ( -0.0000000000000000000, -0.0000000000000000000, -1.000000000000000000 ) ) ;
#43 = CARTESIAN_POINT ( 'NONE',  ( 0.0000000000000000000, 0.0000000000000000000, 1.600000000000000089 ) ) ;
#44 = ORIENTED_EDGE ( 'NONE', *, *, #226, .T. ) ;
#45 = SURFACE_STYLE_USAGE ( .BOTH. , #9 ) ;
#46 = DIRECTION ( 'NONE',  ( -0.0000000000000000000, -0.0000000000000000000, -1.000000000000000000 ) ) ;
#47 = DIRECTION ( 'NONE',  ( 0.0000000000000000000, -1.000000000000000000, 0.0000000000000000000 ) ) ;
#48 = CIRCLE ( 'NONE', #366, 3.200000000000000178 ) ;
#49 = MECHANICAL_DESIGN_GEOMETRIC_PRESENTATION_REPRESENTATION (  '', ( #422 ), #69 ) ;
#50 = ORIENTED_EDGE ( 'NONE', *, *, #58, .F. ) ;
#51 = CIRCLE ( 'NONE', #411, 3.400000000000000355 ) ;
#52 = CARTESIAN_POINT ( 'NONE',  ( 3.400000000000000355, 0.0000000000000000000, 1.600000000000000089 ) ) ;
#53 =( NAMED_UNIT ( * ) PLANE_ANGLE_UNIT ( ) SI_UNIT ( $, .RADIAN. ) );
#54 = DIRECTION ( 'NONE',  ( 0.0000000000000000000, 0.0000000000000000000, 1.000000000000000000 ) ) ;
#55 = AXIS2_PLACEMENT_3D ( 'NONE', #417, #202, #386 ) ;
#56 = ORIENTED_EDGE ( 'NONE', *, *, #340, .F. ) ;
#57 = TOROIDAL_SURFACE ( 'NONE', #268, 5.800000000000001599, 0.2000000000000000111 ) ;
#58 = EDGE_CURVE ( 'NONE', #3, #249, #349, .T. ) ;
#59 = CIRCLE ( 'NONE', #347, 0.1999999999999996503 ) ;
#60 = FACE_BOUND ( 'NONE', #250, .T. ) ;
#61 = VERTEX_POINT ( 'NONE', #72 ) ;
#62 = AXIS2_PLACEMENT_3D ( 'NONE', #17, #217, #408 ) ;
#63 = ORIENTED_EDGE ( 'NONE', *, *, #374, .T. ) ;
#64 = SHAPE_DEFINITION_REPRESENTATION ( #73, #407 ) ;
#65 = APPLICATION_CONTEXT ( 'automotive_design' ) ;
#66 = CIRCLE ( 'NONE', #414, 0.2000000000000000944 ) ;
#67 = DIRECTION ( 'NONE',  ( 1.000000000000000000, 0.0000000000000000000, 0.0000000000000000000 ) ) ;
#68 = ORIENTED_EDGE ( 'NONE', *, *, #136, .T. ) ;
#69 =( GEOMETRIC_REPRESENTATION_CONTEXT ( 3 ) GLOBAL_UNCERTAINTY_ASSIGNED_CONTEXT ( ( #89 ) ) GLOBAL_UNIT_ASSIGNED_CONTEXT ( ( #420, #171, #389 ) ) REPRESENTATION_CONTEXT ( 'NONE', 'WORKASPACE' ) );
#70 = DIRECTION ( 'NONE',  ( 1.000000000000000000, 0.0000000000000000000, 0.0000000000000000000 ) ) ;
#71 = DIRECTION ( 'NONE',  ( 0.0000000000000000000, 0.0000000000000000000, 1.000000000000000000 ) ) ;
#72 = CARTESIAN_POINT ( 'NONE',  ( -5.800000000000001599, 7.225416114969385180E-16, 1.600000000000000089 ) ) ;
#73 = PRODUCT_DEFINITION_SHAPE ( 'NONE', 'NONE',  #320 ) ;
#74 = DIRECTION ( 'NONE',  ( -1.000000000000000000, 0.0000000000000000000, 0.0000000000000000000 ) ) ;
#75 = SURFACE_SIDE_STYLE ('',( #23 ) ) ;
#76 = ORIENTED_EDGE ( 'NONE', *, *, #253, .T. ) ;
#77 = EDGE_LOOP ( 'NONE', ( #96, #68, #129, #294 ) ) ;
#78 = EDGE_CURVE ( 'NONE', #201, #7, #306, .T. ) ;
#79 = AXIS2_PLACEMENT_3D ( 'NONE', #419, #204, #169 ) ;
#80 = CARTESIAN_POINT ( 'NONE',  ( -3.400000000000000355, 4.163799117101001052E-16, 4.065758146820641628E-17 ) ) ;
#81 = EDGE_LOOP ( 'NONE', ( #362, #172, #314, #177 ) ) ;
#82 = DIRECTION ( 'NONE',  ( 0.0000000000000000000, 0.0000000000000000000, 1.000000000000000000 ) ) ;
#83 = DIRECTION ( 'NONE',  ( -0.0000000000000000000, -0.0000000000000000000, -1.000000000000000000 ) ) ;
#84 = AXIS2_PLACEMENT_3D ( 'NONE', #43, #238, #6 ) ;
#85 = VERTEX_POINT ( 'NONE', #234 ) ;
#86 = TOROIDAL_SURFACE ( 'NONE', #351, 5.800000000000001599, 0.2000000000000000111 ) ;
#87 = EDGE_CURVE ( 'NONE', #249, #3, #115, .T. ) ;
#88 = FACE_OUTER_BOUND ( 'NONE', #325, .T. ) ;
#89 = UNCERTAINTY_MEASURE_WITH_UNIT (LENGTH_MEASURE( 1.000000000000000082E-05 ), #420, 'distance_accuracy_value', 'NONE');
#90 = FACE_OUTER_BOUND ( 'NONE', #304, .T. ) ;
#91 = AXIS2_PLACEMENT_3D ( 'NONE', #359, #395, #273 ) ;
#92 = VERTEX_POINT ( 'NONE', #104 ) ;
#93 = EDGE_CURVE ( 'NONE', #92, #3, #356, .T. ) ;
#94 = AXIS2_PLACEMENT_3D ( 'NONE', #137, #388, #97 ) ;
#95 = APPLICATION_PROTOCOL_DEFINITION ( 'draft international standard', 'automotive_design', 1998, #65 ) ;
#96 = ORIENTED_EDGE ( 'NONE', *, *, #340, .T. ) ;
#97 = DIRECTION ( 'NONE',  ( 1.000000000000000000, 0.0000000000000000000, 0.0000000000000000000 ) ) ;
#98 = EDGE_CURVE ( 'NONE', #7, #276, #371, .T. ) ;
#99 = DIRECTION ( 'NONE',  ( 1.000000000000000000, 0.0000000000000000000, 0.0000000000000000000 ) ) ;
#100 = CARTESIAN_POINT ( 'NONE',  ( 0.0000000000000000000, 0.0000000000000000000, 1.399999999999999911 ) ) ;
#101 = FACE_OUTER_BOUND ( 'NONE', #194, .T. ) ;
#102 = CARTESIAN_POINT ( 'NONE',  ( 0.0000000000000000000, 0.0000000000000000000, 0.2000000000000000944 ) ) ;
#103 = DIRECTION ( 'NONE',  ( 1.000000000000000000, 0.0000000000000000000, 0.0000000000000000000 ) ) ;
#104 = CARTESIAN_POINT ( 'NONE',  ( -5.800000000000001599, 7.225416114969385180E-16, 0.0000000000000000000 ) ) ;
#105 = PRODUCT ( 'M6 WASHER', 'M6 WASHER', '', ( #221 ) ) ;
#106 = ORIENTED_EDGE ( 'NONE', *, *, #183, .T. ) ;
#107 = AXIS2_PLACEMENT_3D ( 'NONE', #279, #47, #243 ) ;
#108 = DIRECTION ( 'NONE',  ( 0.0000000000000000000, 0.0000000000000000000, 1.000000000000000000 ) ) ;
#109 = ORIENTED_EDGE ( 'NONE', *, *, #58, .T. ) ;
#110 = DIRECTION ( 'NONE',  ( 1.000000000000000000, 0.0000000000000000000, 0.0000000000000000000 ) ) ;
#111 = CYLINDRICAL_SURFACE ( 'NONE', #200, 3.200000000000000178 ) ;
#112 = CARTESIAN_POINT ( 'NONE',  ( 0.0000000000000000000, 0.0000000000000000000, 0.0000000000000000000 ) ) ;
#113 = VERTEX_POINT ( 'NONE', #367 ) ;
#114 = CARTESIAN_POINT ( 'NONE',  ( 0.0000000000000000000, 0.0000000000000000000, 1.600000000000000089 ) ) ;
#115 = CIRCLE ( 'NONE', #206, 6.000000000000000888 ) ;
#116 = DIRECTION ( 'NONE',  ( 0.0000000000000000000, 0.0000000000000000000, 1.000000000000000000 ) ) ;
#117 = AXIS2_PLACEMENT_3D ( 'NONE', #270, #39, #299 ) ;
#118 = CARTESIAN_POINT ( 'NONE',  ( 6.000000000000000888, 7.347880794884120722E-16, 0.2000000000000000944 ) ) ;
#119 = ORIENTED_EDGE ( 'NONE', *, *, #24, .F. ) ;
#120 = ADVANCED_FACE ( 'NONE', ( #196 ), #57, .T. ) ;
#121 = DIRECTION ( 'NONE',  ( 0.0000000000000000000, -1.000000000000000000, 0.0000000000000000000 ) ) ;
#122 = ORIENTED_EDGE ( 'NONE', *, *, #226, .F. ) ;
#123 = DIRECTION ( 'NONE',  ( 1.000000000000000000, 0.0000000000000000000, 0.0000000000000000000 ) ) ;
#124 = EDGE_CURVE ( 'NONE', #133, #92, #168, .T. ) ;
#125 = DIRECTION ( 'NONE',  ( 1.000000000000000000, 0.0000000000000000000, 0.0000000000000000000 ) ) ;
#126 =( GEOMETRIC_REPRESENTATION_CONTEXT ( 3 ) GLOBAL_UNCERTAINTY_ASSIGNED_CONTEXT ( ( #216 ) ) GLOBAL_UNIT_ASSIGNED_CONTEXT ( ( #167, #355, #134 ) ) REPRESENTATION_CONTEXT ( 'NONE', 'WORKASPACE' ) );
#127 = CIRCLE ( 'NONE', #256, 6.000000000000000888 ) ;
#128 = ORIENTED_EDGE ( 'NONE', *, *, #309, .T. ) ;
#129 = ORIENTED_EDGE ( 'NONE', *, *, #87, .T. ) ;
#130 = VECTOR ( 'NONE', #235, 1000.000000000000000 ) ;
#131 = ORIENTED_EDGE ( 'NONE', *, *, #281, .T. ) ;
#132 = AXIS2_PLACEMENT_3D ( 'NONE', #313, #83, #280 ) ;
#133 = VERTEX_POINT ( 'NONE', #305 ) ;
#134 =( NAMED_UNIT ( * ) SI_UNIT ( $, .STERADIAN. ) SOLID_ANGLE_UNIT ( ) );
#135 = CIRCLE ( 'NONE', #84, 5.800000000000001599 ) ;
#136 = EDGE_CURVE ( 'NONE', #252, #249, #251, .T. ) ;
#137 = CARTESIAN_POINT ( 'NONE',  ( 0.0000000000000000000, 0.0000000000000000000, 1.399999999999999911 ) ) ;
#138 = CARTESIAN_POINT ( 'NONE',  ( 0.0000000000000000000, 0.0000000000000000000, 0.0000000000000000000 ) ) ;
#139 = CIRCLE ( 'NONE', #377, 3.400000000000000355 ) ;
#140 = AXIS2_PLACEMENT_3D ( 'NONE', #357, #335, #237 ) ;
#141 = ORIENTED_EDGE ( 'NONE', *, *, #381, .F. ) ;
#142 = CIRCLE ( 'NONE', #55, 0.2000000000000000944 ) ;
#143 = CARTESIAN_POINT ( 'NONE',  ( 0.0000000000000000000, 0.0000000000000000000, 1.399999999999999911 ) ) ;
#144 = DIRECTION ( 'NONE',  ( 0.0000000000000000000, 0.0000000000000000000, -1.000000000000000000 ) ) ;
#145 = CARTESIAN_POINT ( 'NONE',  ( 0.0000000000000000000, 0.0000000000000000000, 1.600000000000000089 ) ) ;
#146 = CARTESIAN_POINT ( 'NONE',  ( 6.000000000000000888, 7.347880794884120722E-16, 1.600000000000000089 ) ) ;
#147 = EDGE_CURVE ( 'NONE', #230, #239, #348, .T. ) ;
#148 = VERTEX_POINT ( 'NONE', #80 ) ;
#149 = CARTESIAN_POINT ( 'NONE',  ( 0.0000000000000000000, 0.0000000000000000000, 0.2000000000000000944 ) ) ;
#150 = CARTESIAN_POINT ( 'NONE',  ( 0.0000000000000000000, 0.0000000000000000000, 0.2000000000000000944 ) ) ;
#151 = ADVANCED_FACE ( 'NONE', ( #334 ), #260, .T. ) ;
#152 = ORIENTED_EDGE ( 'NONE', *, *, #147, .T. ) ;
#153 = DIRECTION ( 'NONE',  ( -1.000000000000000000, 0.0000000000000000000, 0.0000000000000000000 ) ) ;
#154 = DIRECTION ( 'NONE',  ( -0.0000000000000000000, -0.0000000000000000000, -1.000000000000000000 ) ) ;
#155 = CARTESIAN_POINT ( 'NONE',  ( -3.400000000000000355, 4.163799117101001052E-16, 1.600000000000000089 ) ) ;
#156 = AXIS2_PLACEMENT_3D ( 'NONE', #375, #82, #16 ) ;
#157 = ADVANCED_FACE ( 'NONE', ( #181 ), #86, .T. ) ;
#158 = CARTESIAN_POINT ( 'NONE',  ( 0.0000000000000000000, 0.0000000000000000000, 0.0000000000000000000 ) ) ;
#159 = ORIENTED_EDGE ( 'NONE', *, *, #361, .F. ) ;
#160 = CIRCLE ( 'NONE', #62, 0.2000000000000000111 ) ;
#161 = DIRECTION ( 'NONE',  ( 1.000000000000000000, 0.0000000000000000000, 0.0000000000000000000 ) ) ;
#162 = EDGE_LOOP ( 'NONE', ( #163, #119, #76, #141 ) ) ;
#163 = ORIENTED_EDGE ( 'NONE', *, *, #382, .F. ) ;
#164 = AXIS2_PLACEMENT_3D ( 'NONE', #102, #267, #328 ) ;
#165 = ORIENTED_EDGE ( 'NONE', *, *, #372, .T. ) ;
#166 = STYLED_ITEM ( 'NONE', ( #258 ), #407 ) ;
#167 =( LENGTH_UNIT ( ) NAMED_UNIT ( * ) SI_UNIT ( .MILLI., .METRE. ) );
#168 = CIRCLE ( 'NONE', #245, 5.800000000000001599 ) ;
#169 = DIRECTION ( 'NONE',  ( 1.000000000000000000, 0.0000000000000000000, 0.0000000000000000000 ) ) ;
#170 = UNCERTAINTY_MEASURE_WITH_UNIT (LENGTH_MEASURE( 1.000000000000000082E-05 ), #241, 'distance_accuracy_value', 'NONE');
#171 =( NAMED_UNIT ( * ) PLANE_ANGLE_UNIT ( ) SI_UNIT ( $, .RADIAN. ) );
#172 = ORIENTED_EDGE ( 'NONE', *, *, #98, .T. ) ;
#173 = CARTESIAN_POINT ( 'NONE',  ( 3.400000000000000355, 0.0000000000000000000, 4.065758146820641628E-17 ) ) ;
#174 = DIRECTION ( 'NONE',  ( 1.224646799147353207E-16, 1.000000000000000000, -0.0000000000000000000 ) ) ;
#175 = CARTESIAN_POINT ( 'NONE',  ( 3.200000000000000178, 3.918869757271530460E-16, 1.399999999999999911 ) ) ;
#176 = AXIS2_PLACEMENT_3D ( 'NONE', #145, #331, #110 ) ;
#177 = ORIENTED_EDGE ( 'NONE', *, *, #405, .F. ) ;
#178 = CARTESIAN_POINT ( 'NONE',  ( 5.800000000000001599, 0.0000000000000000000, 0.2000000000000000944 ) ) ;
#179 = CLOSED_SHELL ( 'NONE', ( #22, #151, #157, #189, #285, #15, #379, #310, #278, #312, #282, #406, #120, #412 ) ) ;
#180 = DIRECTION ( 'NONE',  ( 1.000000000000000000, 0.0000000000000000000, 0.0000000000000000000 ) ) ;
#181 = FACE_OUTER_BOUND ( 'NONE', #369, .T. ) ;
#182 = CARTESIAN_POINT ( 'NONE',  ( -6.000000000000000888, 0.0000000000000000000, 0.2000000000000000944 ) ) ;
#183 = EDGE_CURVE ( 'NONE', #92, #133, #292, .T. ) ;
#184 = ORIENTED_EDGE ( 'NONE', *, *, #124, .F. ) ;
#185 = AXIS2_PLACEMENT_3D ( 'NONE', #265, #71, #67 ) ;
#186 = CARTESIAN_POINT ( 'NONE',  ( 6.000000000000000888, 7.347880794884120722E-16, 1.399999999999999911 ) ) ;
#187 = APPLICATION_CONTEXT ( 'automotive_design' ) ;
#188 = ORIENTED_EDGE ( 'NONE', *, *, #301, .F. ) ;
#189 = ADVANCED_FACE ( 'NONE', ( #88 ), #399, .T. ) ;
#190 = DIRECTION ( 'NONE',  ( 1.000000000000000000, 0.0000000000000000000, 0.0000000000000000000 ) ) ;
#191 = EDGE_CURVE ( 'NONE', #37, #148, #139, .T. ) ;
#192 = PRESENTATION_LAYER_ASSIGNMENT (  '', '', ( #166 ) ) ;
#193 = VECTOR ( 'NONE', #368, 1000.000000000000000 ) ;
#194 = EDGE_LOOP ( 'NONE', ( #213, #106 ) ) ;
#195 = EDGE_CURVE ( 'NONE', #239, #7, #66, .T. ) ;
#196 = FACE_OUTER_BOUND ( 'NONE', #344, .T. ) ;
#197 = ORIENTED_EDGE ( 'NONE', *, *, #309, .F. ) ;
#198 = ORIENTED_EDGE ( 'NONE', *, *, #183, .F. ) ;
#199 = TOROIDAL_SURFACE ( 'NONE', #91, 3.400000000000000355, 0.2000000000000000111 ) ;
#200 = AXIS2_PLACEMENT_3D ( 'NONE', #215, #404, #153 ) ;
#201 = VERTEX_POINT ( 'NONE', #248 ) ;
#202 = DIRECTION ( 'NONE',  ( 1.224646799147353207E-16, 1.000000000000000000, -0.0000000000000000000 ) ) ;
#203 = VECTOR ( 'NONE', #46, 1000.000000000000000 ) ;
#204 = DIRECTION ( 'NONE',  ( 0.0000000000000000000, 0.0000000000000000000, 1.000000000000000000 ) ) ;
#205 = SURFACE_STYLE_USAGE ( .BOTH. , #75 ) ;
#206 = AXIS2_PLACEMENT_3D ( 'NONE', #337, #116, #308 ) ;
#207 = ORIENTED_EDGE ( 'NONE', *, *, #209, .F. ) ;
#208 = FACE_OUTER_BOUND ( 'NONE', #384, .T. ) ;
#209 = EDGE_CURVE ( 'NONE', #85, #61, #393, .T. ) ;
#210 = CARTESIAN_POINT ( 'NONE',  ( 0.0000000000000000000, 0.0000000000000000000, 0.0000000000000000000 ) ) ;
#211 = DIRECTION ( 'NONE',  ( -0.0000000000000000000, -0.0000000000000000000, -1.000000000000000000 ) ) ;
#212 = MECHANICAL_DESIGN_GEOMETRIC_PRESENTATION_REPRESENTATION (  '', ( #166 ), #232 ) ;
#213 = ORIENTED_EDGE ( 'NONE', *, *, #124, .T. ) ;
#214 = DIRECTION ( 'NONE',  ( -1.000000000000000000, 1.224646799147353454E-16, 0.0000000000000000000 ) ) ;
#215 = CARTESIAN_POINT ( 'NONE',  ( 0.0000000000000000000, 0.0000000000000000000, 1.600000000000000089 ) ) ;
#216 = UNCERTAINTY_MEASURE_WITH_UNIT (LENGTH_MEASURE( 1.000000000000000082E-05 ), #167, 'distance_accuracy_value', 'NONE');
#217 = DIRECTION ( 'NONE',  ( 0.0000000000000000000, -1.000000000000000000, 0.0000000000000000000 ) ) ;
#218 = ORIENTED_EDGE ( 'NONE', *, *, #374, .F. ) ;
#219 = LINE ( 'NONE', #358, #130 ) ;
#220 = DIRECTION ( 'NONE',  ( 1.000000000000000000, 0.0000000000000000000, 0.0000000000000000000 ) ) ;
#221 = PRODUCT_CONTEXT ( 'NONE', #65, 'mechanical' ) ;
#222 = CARTESIAN_POINT ( 'NONE',  ( 0.0000000000000000000, 0.0000000000000000000, 0.0000000000000000000 ) ) ;
#223 = AXIS2_PLACEMENT_3D ( 'NONE', #178, #365, #144 ) ;
#224 = ORIENTED_EDGE ( 'NONE', *, *, #413, .T. ) ;
#225 = CYLINDRICAL_SURFACE ( 'NONE', #132, 6.000000000000000888 ) ;
#226 = EDGE_CURVE ( 'NONE', #11, #276, #364, .T. ) ;
#227 = ORIENTED_EDGE ( 'NONE', *, *, #136, .F. ) ;
#228 = AXIS2_PLACEMENT_3D ( 'NONE', #240, #12, #214 ) ;
#229 = FACE_BOUND ( 'NONE', #242, .T. ) ;
#230 = VERTEX_POINT ( 'NONE', #155 ) ;
#231 = FACE_OUTER_BOUND ( 'NONE', #262, .T. ) ;
#232 =( GEOMETRIC_REPRESENTATION_CONTEXT ( 3 ) GLOBAL_UNCERTAINTY_ASSIGNED_CONTEXT ( ( #170 ) ) GLOBAL_UNIT_ASSIGNED_CONTEXT ( ( #241, #53, #284 ) ) REPRESENTATION_CONTEXT ( 'NONE', 'WORKASPACE' ) );
#233 = DIRECTION ( 'NONE',  ( -1.000000000000000000, 1.224646799147353207E-16, 0.0000000000000000000 ) ) ;
#234 = CARTESIAN_POINT ( 'NONE',  ( 5.800000000000001599, 0.0000000000000000000, 1.600000000000000089 ) ) ;
#235 = DIRECTION ( 'NONE',  ( -0.0000000000000000000, -0.0000000000000000000, -1.000000000000000000 ) ) ;
#236 = DIRECTION ( 'NONE',  ( 1.000000000000000000, 0.0000000000000000000, 0.0000000000000000000 ) ) ;
#237 = DIRECTION ( 'NONE',  ( -1.000000000000000000, 0.0000000000000000000, 0.0000000000000000000 ) ) ;
#238 = DIRECTION ( 'NONE',  ( 0.0000000000000000000, 0.0000000000000000000, 1.000000000000000000 ) ) ;
#239 = VERTEX_POINT ( 'NONE', #52 ) ;
#240 = CARTESIAN_POINT ( 'NONE',  ( -5.800000000000001599, 7.102951435054649637E-16, 0.2000000000000000944 ) ) ;
#241 =( LENGTH_UNIT ( ) NAMED_UNIT ( * ) SI_UNIT ( .MILLI., .METRE. ) );
#242 = EDGE_LOOP ( 'NONE', ( #4, #152 ) ) ;
#243 = DIRECTION ( 'NONE',  ( 0.0000000000000000000, 0.0000000000000000000, -1.000000000000000000 ) ) ;
#244 = CARTESIAN_POINT ( 'NONE',  ( 3.200000000000000178, 3.918869757271530460E-16, 0.2000000000000000944 ) ) ;
#245 = AXIS2_PLACEMENT_3D ( 'NONE', #112, #332, #180 ) ;
#246 = CARTESIAN_POINT ( 'NONE',  ( 0.0000000000000000000, 0.0000000000000000000, 1.600000000000000089 ) ) ;
#247 = DIRECTION ( 'NONE',  ( 0.0000000000000000000, 0.0000000000000000000, 1.000000000000000000 ) ) ;
#248 = CARTESIAN_POINT ( 'NONE',  ( -3.200000000000000178, 0.0000000000000000000, 1.399999999999999911 ) ) ;
#249 = VERTEX_POINT ( 'NONE', #118 ) ;
#250 = EDGE_LOOP ( 'NONE', ( #352, #290 ) ) ;
#251 = LINE ( 'NONE', #146, #193 ) ;
#252 = VERTEX_POINT ( 'NONE', #186 ) ;
#253 = EDGE_CURVE ( 'NONE', #276, #37, #160, .T. ) ;
#254 = EDGE_LOOP ( 'NONE', ( #319, #297 ) ) ;
#255 = FACE_OUTER_BOUND ( 'NONE', #162, .T. ) ;
#256 = AXIS2_PLACEMENT_3D ( 'NONE', #269, #38, #236 ) ;
#257 = ORIENTED_EDGE ( 'NONE', *, *, #405, .T. ) ;
#258 = PRESENTATION_STYLE_ASSIGNMENT (( #45 ) ) ;
#259 = FILL_AREA_STYLE ('',( #261 ) ) ;
#260 = TOROIDAL_SURFACE ( 'NONE', #329, 5.800000000000001599, 0.2000000000000000111 ) ;
#261 = FILL_AREA_STYLE_COLOUR ( '', #5 ) ;
#262 = EDGE_LOOP ( 'NONE', ( #227, #343, #415, #109 ) ) ;
#263 = CARTESIAN_POINT ( 'NONE',  ( -3.400000000000000355, 4.163799117101001052E-16, 0.2000000000000000944 ) ) ;
#264 = CIRCLE ( 'NONE', #117, 3.200000000000000178 ) ;
#265 = CARTESIAN_POINT ( 'NONE',  ( 0.0000000000000000000, 0.0000000000000000000, 1.399999999999999911 ) ) ;
#266 = DIRECTION ( 'NONE',  ( 0.0000000000000000000, 0.0000000000000000000, 1.000000000000000000 ) ) ;
#267 = DIRECTION ( 'NONE',  ( 0.0000000000000000000, 0.0000000000000000000, 1.000000000000000000 ) ) ;
#268 = AXIS2_PLACEMENT_3D ( 'NONE', #150, #402, #10 ) ;
#269 = CARTESIAN_POINT ( 'NONE',  ( 0.0000000000000000000, 0.0000000000000000000, 1.399999999999999911 ) ) ;
#270 = CARTESIAN_POINT ( 'NONE',  ( 0.0000000000000000000, 0.0000000000000000000, 0.2000000000000000944 ) ) ;
#271 = ORIENTED_EDGE ( 'NONE', *, *, #78, .F. ) ;
#272 = CARTESIAN_POINT ( 'NONE',  ( 0.0000000000000000000, 0.0000000000000000000, 1.600000000000000089 ) ) ;
#273 = DIRECTION ( 'NONE',  ( 1.000000000000000000, 0.0000000000000000000, 0.0000000000000000000 ) ) ;
#274 = ORIENTED_EDGE ( 'NONE', *, *, #281, .F. ) ;
#275 = DIRECTION ( 'NONE',  ( 1.000000000000000000, 0.0000000000000000000, 0.0000000000000000000 ) ) ;
#276 = VERTEX_POINT ( 'NONE', #244 ) ;
#277 = CYLINDRICAL_SURFACE ( 'NONE', #140, 6.000000000000000888 ) ;
#278 = ADVANCED_FACE ( 'NONE', ( #231 ), #225, .T. ) ;
#279 = CARTESIAN_POINT ( 'NONE',  ( 5.800000000000001599, 0.0000000000000000000, 1.399999999999999911 ) ) ;
#280 = DIRECTION ( 'NONE',  ( -1.000000000000000000, 0.0000000000000000000, 0.0000000000000000000 ) ) ;
#281 = EDGE_CURVE ( 'NONE', #252, #85, #350, .T. ) ;
#282 = ADVANCED_FACE ( 'NONE', ( #255 ), #14, .T. ) ;
#283 = EDGE_LOOP ( 'NONE', ( #401, #159, #131, #188 ) ) ;
#284 =( NAMED_UNIT ( * ) SI_UNIT ( $, .STERADIAN. ) SOLID_ANGLE_UNIT ( ) );
#285 = ADVANCED_FACE ( 'NONE', ( #29 ), #111, .F. ) ;
#286 = AXIS2_PLACEMENT_3D ( 'NONE', #210, #108, #300 ) ;
#287 = CARTESIAN_POINT ( 'NONE',  ( 0.0000000000000000000, 0.0000000000000000000, 1.399999999999999911 ) ) ;
#288 = EDGE_CURVE ( 'NONE', #113, #3, #387, .T. ) ;
#289 = AXIS2_PLACEMENT_3D ( 'NONE', #114, #370, #161 ) ;
#290 = ORIENTED_EDGE ( 'NONE', *, *, #381, .T. ) ;
#291 = TOROIDAL_SURFACE ( 'NONE', #94, 3.400000000000000355, 0.2000000000000000111 ) ;
#292 = CIRCLE ( 'NONE', #315, 5.800000000000001599 ) ;
#293 = AXIS2_PLACEMENT_3D ( 'NONE', #34, #247, #341 ) ;
#294 = ORIENTED_EDGE ( 'NONE', *, *, #288, .F. ) ;
#295 = CARTESIAN_POINT ( 'NONE',  ( 3.200000000000000178, 3.918869757271530460E-16, 1.600000000000000089 ) ) ;
#296 = DIRECTION ( 'NONE',  ( 0.0000000000000000000, 0.0000000000000000000, 1.000000000000000000 ) ) ;
#297 = ORIENTED_EDGE ( 'NONE', *, *, #301, .T. ) ;
#298 = EDGE_CURVE ( 'NONE', #239, #230, #390, .T. ) ;
#299 = DIRECTION ( 'NONE',  ( 1.000000000000000000, 0.0000000000000000000, 0.0000000000000000000 ) ) ;
#300 = DIRECTION ( 'NONE',  ( 1.000000000000000000, 0.0000000000000000000, -0.0000000000000000000 ) ) ;
#301 = EDGE_CURVE ( 'NONE', #61, #85, #135, .T. ) ;
#302 = AXIS2_PLACEMENT_3D ( 'NONE', #143, #330, #103 ) ;
#303 = PLANE ( 'NONE',  #286 ) ;
#304 = EDGE_LOOP ( 'NONE', ( #323, #224, #218, #418 ) ) ;
#305 = CARTESIAN_POINT ( 'NONE',  ( 5.800000000000001599, 0.0000000000000000000, 0.0000000000000000000 ) ) ;
#306 = CIRCLE ( 'NONE', #185, 3.200000000000000178 ) ;
#307 = DIRECTION ( 'NONE',  ( 0.0000000000000000000, 0.0000000000000000000, 1.000000000000000000 ) ) ;
#308 = DIRECTION ( 'NONE',  ( 1.000000000000000000, 0.0000000000000000000, 0.0000000000000000000 ) ) ;
#309 = EDGE_CURVE ( 'NONE', #133, #249, #416, .T. ) ;
#310 = ADVANCED_FACE ( 'NONE', ( #60, #101 ), #303, .F. ) ;
#311 = ORIENTED_EDGE ( 'NONE', *, *, #93, .T. ) ;
#312 = ADVANCED_FACE ( 'NONE', ( #25 ), #353, .F. ) ;
#313 = CARTESIAN_POINT ( 'NONE',  ( 0.0000000000000000000, 0.0000000000000000000, 1.600000000000000089 ) ) ;
#314 = ORIENTED_EDGE ( 'NONE', *, *, #24, .T. ) ;
#315 = AXIS2_PLACEMENT_3D ( 'NONE', #158, #346, #123 ) ;
#316 = DIRECTION ( 'NONE',  ( 0.0000000000000000000, 0.0000000000000000000, -1.000000000000000000 ) ) ;
#317 = DIRECTION ( 'NONE',  ( 1.000000000000000000, 0.0000000000000000000, 0.0000000000000000000 ) ) ;
#318 = DIRECTION ( 'NONE',  ( 0.0000000000000000000, 0.0000000000000000000, 1.000000000000000000 ) ) ;
#319 = ORIENTED_EDGE ( 'NONE', *, *, #209, .T. ) ;
#320 = PRODUCT_DEFINITION ( 'UNKNOWN', '', #333, #373 ) ;
#321 = ORIENTED_EDGE ( 'NONE', *, *, #195, .T. ) ;
#322 = AXIS2_PLACEMENT_3D ( 'NONE', #272, #42, #74 ) ;
#323 = ORIENTED_EDGE ( 'NONE', *, *, #147, .F. ) ;
#324 = ORIENTED_EDGE ( 'NONE', *, *, #382, .T. ) ;
#325 = EDGE_LOOP ( 'NONE', ( #122, #324, #336, #20 ) ) ;
#326 = DIRECTION ( 'NONE',  ( 0.0000000000000000000, 0.0000000000000000000, 1.000000000000000000 ) ) ;
#327 = CARTESIAN_POINT ( 'NONE',  ( 0.0000000000000000000, 0.0000000000000000000, 1.600000000000000089 ) ) ;
#328 = DIRECTION ( 'NONE',  ( 1.000000000000000000, 0.0000000000000000000, 0.0000000000000000000 ) ) ;
#329 = AXIS2_PLACEMENT_3D ( 'NONE', #149, #307, #125 ) ;
#330 = DIRECTION ( 'NONE',  ( -0.0000000000000000000, -0.0000000000000000000, -1.000000000000000000 ) ) ;
#331 = DIRECTION ( 'NONE',  ( -0.0000000000000000000, -0.0000000000000000000, -1.000000000000000000 ) ) ;
#332 = DIRECTION ( 'NONE',  ( -0.0000000000000000000, -0.0000000000000000000, -1.000000000000000000 ) ) ;
#333 = PRODUCT_DEFINITION_FORMATION_WITH_SPECIFIED_SOURCE ( 'ANY', '', #105, .NOT_KNOWN. ) ;
#334 = FACE_OUTER_BOUND ( 'NONE', #26, .T. ) ;
#335 = DIRECTION ( 'NONE',  ( -0.0000000000000000000, -0.0000000000000000000, -1.000000000000000000 ) ) ;
#336 = ORIENTED_EDGE ( 'NONE', *, *, #191, .F. ) ;
#337 = CARTESIAN_POINT ( 'NONE',  ( 0.0000000000000000000, 0.0000000000000000000, 0.2000000000000000944 ) ) ;
#338 = FACE_OUTER_BOUND ( 'NONE', #77, .T. ) ;
#339 = DIRECTION ( 'NONE',  ( 1.000000000000000000, 0.0000000000000000000, 0.0000000000000000000 ) ) ;
#340 = EDGE_CURVE ( 'NONE', #113, #252, #421, .T. ) ;
#341 = DIRECTION ( 'NONE',  ( 1.000000000000000000, 0.0000000000000000000, 0.0000000000000000000 ) ) ;
#342 = CARTESIAN_POINT ( 'NONE',  ( 3.400000000000000355, 0.0000000000000000000, 1.399999999999999911 ) ) ;
#343 = ORIENTED_EDGE ( 'NONE', *, *, #361, .T. ) ;
#344 = EDGE_LOOP ( 'NONE', ( #30, #184, #128, #50 ) ) ;
#345 = SURFACE_STYLE_FILL_AREA ( #259 ) ;
#346 = DIRECTION ( 'NONE',  ( -0.0000000000000000000, -0.0000000000000000000, -1.000000000000000000 ) ) ;
#347 = AXIS2_PLACEMENT_3D ( 'NONE', #392, #174, #360 ) ;
#348 = CIRCLE ( 'NONE', #289, 3.400000000000000355 ) ;
#349 = CIRCLE ( 'NONE', #164, 6.000000000000000888 ) ;
#350 = CIRCLE ( 'NONE', #107, 0.2000000000000000944 ) ;
#351 = AXIS2_PLACEMENT_3D ( 'NONE', #287, #318, #275 ) ;
#352 = ORIENTED_EDGE ( 'NONE', *, *, #191, .T. ) ;
#353 = CYLINDRICAL_SURFACE ( 'NONE', #322, 3.200000000000000178 ) ;
#354 = PRODUCT_RELATED_PRODUCT_CATEGORY ( 'part', '', ( #105 ) ) ;
#355 =( NAMED_UNIT ( * ) PLANE_ANGLE_UNIT ( ) SI_UNIT ( $, .RADIAN. ) );
#356 = CIRCLE ( 'NONE', #228, 0.1999999999999996503 ) ;
#357 = CARTESIAN_POINT ( 'NONE',  ( 0.0000000000000000000, 0.0000000000000000000, 1.600000000000000089 ) ) ;
#358 = CARTESIAN_POINT ( 'NONE',  ( -3.200000000000000178, 0.0000000000000000000, 1.600000000000000089 ) ) ;
#359 = CARTESIAN_POINT ( 'NONE',  ( 0.0000000000000000000, 0.0000000000000000000, 1.399999999999999911 ) ) ;
#360 = DIRECTION ( 'NONE',  ( -1.000000000000000000, 1.224646799147353454E-16, 0.0000000000000000000 ) ) ;
#361 = EDGE_CURVE ( 'NONE', #252, #113, #127, .T. ) ;
#362 = ORIENTED_EDGE ( 'NONE', *, *, #78, .T. ) ;
#363 = FILL_AREA_STYLE_COLOUR ( '', #394 ) ;
#364 = CIRCLE ( 'NONE', #41, 3.200000000000000178 ) ;
#365 = DIRECTION ( 'NONE',  ( 0.0000000000000000000, -1.000000000000000000, 0.0000000000000000000 ) ) ;
#366 = AXIS2_PLACEMENT_3D ( 'NONE', #100, #296, #70 ) ;
#367 = CARTESIAN_POINT ( 'NONE',  ( -6.000000000000000888, 0.0000000000000000000, 1.399999999999999911 ) ) ;
#368 = DIRECTION ( 'NONE',  ( -0.0000000000000000000, -0.0000000000000000000, -1.000000000000000000 ) ) ;
#369 = EDGE_LOOP ( 'NONE', ( #56, #165, #207, #274 ) ) ;
#370 = DIRECTION ( 'NONE',  ( -0.0000000000000000000, -0.0000000000000000000, -1.000000000000000000 ) ) ;
#371 = LINE ( 'NONE', #295, #203 ) ;
#372 = EDGE_CURVE ( 'NONE', #113, #61, #59, .T. ) ;
#373 = PRODUCT_DEFINITION_CONTEXT ( 'detailed design', #187, 'design' ) ;
#374 = EDGE_CURVE ( 'NONE', #7, #201, #48, .T. ) ;
#375 = CARTESIAN_POINT ( 'NONE',  ( 0.0000000000000000000, 0.0000000000000000000, 0.2000000000000000944 ) ) ;
#376 = CARTESIAN_POINT ( 'NONE',  ( 0.0000000000000000000, 0.0000000000000000000, 0.2000000000000000944 ) ) ;
#377 = AXIS2_PLACEMENT_3D ( 'NONE', #222, #410, #190 ) ;
#378 = FACE_OUTER_BOUND ( 'NONE', #283, .T. ) ;
#379 = ADVANCED_FACE ( 'NONE', ( #27, #229 ), #2, .T. ) ;
#380 = PRESENTATION_STYLE_ASSIGNMENT (( #205 ) ) ;
#381 = EDGE_CURVE ( 'NONE', #148, #37, #51, .T. ) ;
#382 = EDGE_CURVE ( 'NONE', #11, #148, #385, .T. ) ;
#383 = EDGE_LOOP ( 'NONE', ( #391, #63, #257, #44 ) ) ;
#384 = EDGE_LOOP ( 'NONE', ( #398, #33, #321, #271 ) ) ;
#385 = CIRCLE ( 'NONE', #32, 0.2000000000000000944 ) ;
#386 = DIRECTION ( 'NONE',  ( -1.000000000000000000, 1.224646799147353207E-16, 0.0000000000000000000 ) ) ;
#387 = LINE ( 'NONE', #400, #31 ) ;
#388 = DIRECTION ( 'NONE',  ( 0.0000000000000000000, 0.0000000000000000000, 1.000000000000000000 ) ) ;
#389 =( NAMED_UNIT ( * ) SI_UNIT ( $, .STERADIAN. ) SOLID_ANGLE_UNIT ( ) );
#390 = CIRCLE ( 'NONE', #176, 3.400000000000000355 ) ;
#391 = ORIENTED_EDGE ( 'NONE', *, *, #98, .F. ) ;
#392 = CARTESIAN_POINT ( 'NONE',  ( -5.800000000000001599, 7.102951435054649637E-16, 1.399999999999999911 ) ) ;
#393 = CIRCLE ( 'NONE', #19, 5.800000000000001599 ) ;
#394 = COLOUR_RGB ( '',0.7921568627450980005, 0.8196078431372548767, 0.9333333333333333481 ) ;
#395 = DIRECTION ( 'NONE',  ( 0.0000000000000000000, 0.0000000000000000000, 1.000000000000000000 ) ) ;
#396 = AXIS2_PLACEMENT_3D ( 'NONE', #403, #54, #317 ) ;
#397 = CARTESIAN_POINT ( 'NONE',  ( -3.200000000000000178, 0.0000000000000000000, 0.2000000000000000944 ) ) ;
#398 = ORIENTED_EDGE ( 'NONE', *, *, #413, .F. ) ;
#399 = TOROIDAL_SURFACE ( 'NONE', #396, 3.400000000000000355, 0.2000000000000000111 ) ;
#400 = CARTESIAN_POINT ( 'NONE',  ( -6.000000000000000888, 0.0000000000000000000, 1.600000000000000089 ) ) ;
#401 = ORIENTED_EDGE ( 'NONE', *, *, #372, .F. ) ;
#402 = DIRECTION ( 'NONE',  ( 0.0000000000000000000, 0.0000000000000000000, 1.000000000000000000 ) ) ;
#403 = CARTESIAN_POINT ( 'NONE',  ( 0.0000000000000000000, 0.0000000000000000000, 0.2000000000000000944 ) ) ;
#404 = DIRECTION ( 'NONE',  ( -0.0000000000000000000, -0.0000000000000000000, -1.000000000000000000 ) ) ;
#405 = EDGE_CURVE ( 'NONE', #201, #11, #219, .T. ) ;
#406 = ADVANCED_FACE ( 'NONE', ( #378 ), #40, .T. ) ;
#407 = ADVANCED_BREP_SHAPE_REPRESENTATION ( 'M6 WASHER', ( #13, #293 ), #126 ) ;
#408 = DIRECTION ( 'NONE',  ( 0.0000000000000000000, 0.0000000000000000000, -1.000000000000000000 ) ) ;
#409 = APPLICATION_PROTOCOL_DEFINITION ( 'draft international standard', 'automotive_design', 1998, #187 ) ;
#410 = DIRECTION ( 'NONE',  ( 0.0000000000000000000, 0.0000000000000000000, 1.000000000000000000 ) ) ;
#411 = AXIS2_PLACEMENT_3D ( 'NONE', #138, #326, #99 ) ;
#412 = ADVANCED_FACE ( 'NONE', ( #208 ), #291, .T. ) ;
#413 = EDGE_CURVE ( 'NONE', #230, #201, #142, .T. ) ;
#414 = AXIS2_PLACEMENT_3D ( 'NONE', #342, #121, #316 ) ;
#415 = ORIENTED_EDGE ( 'NONE', *, *, #288, .T. ) ;
#416 = CIRCLE ( 'NONE', #223, 0.2000000000000000111 ) ;
#417 = CARTESIAN_POINT ( 'NONE',  ( -3.400000000000000355, 4.163799117101001052E-16, 1.399999999999999911 ) ) ;
#418 = ORIENTED_EDGE ( 'NONE', *, *, #195, .F. ) ;
#419 = CARTESIAN_POINT ( 'NONE',  ( 0.0000000000000000000, 0.0000000000000000000, 1.399999999999999911 ) ) ;
#420 =( LENGTH_UNIT ( ) NAMED_UNIT ( * ) SI_UNIT ( .MILLI., .METRE. ) );
#421 = CIRCLE ( 'NONE', #302, 6.000000000000000888 ) ;
#422 = STYLED_ITEM ( 'NONE', ( #380 ), #13 ) ;
ENDSEC;
END-ISO-10303-21;
