ISO-10303-21;
HEADER;
FILE_DESCRIPTION (( 'STEP AP214' ),
    '1' );
FILE_NAME ('M12 WASHER.STEP',
    '2021-06-13T07:43:34',
    ( '' ),
    ( '' ),
    'SwSTEP 2.0',
    'SolidWorks 2018',
    '' );
FILE_SCHEMA (( 'AUTOMOTIVE_DESIGN' ));
ENDSEC;

DATA;
#1 = ORIENTED_EDGE ( 'NONE', *, *, #273, .F. ) ;
#2 = DIRECTION ( 'NONE',  ( 1.224646799147353207E-16, 1.000000000000000000, -0.0000000000000000000 ) ) ;
#3 = CIRCLE ( 'NONE', #411, 11.80000000000000071 ) ;
#4 = CARTESIAN_POINT ( 'NONE',  ( 12.00000000000000178, 1.469576158976824144E-15, 2.500000000000000000 ) ) ;
#5 = ORIENTED_EDGE ( 'NONE', *, *, #360, .T. ) ;
#6 = DIRECTION ( 'NONE',  ( 0.0000000000000000000, 0.0000000000000000000, 1.000000000000000000 ) ) ;
#7 = AXIS2_PLACEMENT_3D ( 'NONE', #275, #178, #368 ) ;
#8 = DIRECTION ( 'NONE',  ( -0.0000000000000000000, -0.0000000000000000000, -1.000000000000000000 ) ) ;
#9 = FACE_OUTER_BOUND ( 'NONE', #347, .T. ) ;
#10 = AXIS2_PLACEMENT_3D ( 'NONE', #207, #398, #174 ) ;
#11 = TOROIDAL_SURFACE ( 'NONE', #410, 11.80000000000000071, 0.2000000000000000111 ) ;
#12 = VERTEX_POINT ( 'NONE', #59 ) ;
#13 =( NAMED_UNIT ( * ) PLANE_ANGLE_UNIT ( ) SI_UNIT ( $, .RADIAN. ) );
#14 = DIRECTION ( 'NONE',  ( 0.0000000000000000000, 0.0000000000000000000, 1.000000000000000000 ) ) ;
#15 = DIRECTION ( 'NONE',  ( 0.0000000000000000000, 0.0000000000000000000, 1.000000000000000000 ) ) ;
#16 = ORIENTED_EDGE ( 'NONE', *, *, #87, .F. ) ;
#17 = DIRECTION ( 'NONE',  ( -0.0000000000000000000, -0.0000000000000000000, -1.000000000000000000 ) ) ;
#18 = DIRECTION ( 'NONE',  ( 1.000000000000000000, 0.0000000000000000000, 0.0000000000000000000 ) ) ;
#19 = EDGE_CURVE ( 'NONE', #20, #287, #223, .T. ) ;
#20 = VERTEX_POINT ( 'NONE', #390 ) ;
#21 = CIRCLE ( 'NONE', #100, 11.80000000000000071 ) ;
#22 =( NAMED_UNIT ( * ) SI_UNIT ( $, .STERADIAN. ) SOLID_ANGLE_UNIT ( ) );
#23 = SHAPE_DEFINITION_REPRESENTATION ( #204, #26 ) ;
#24 = PRODUCT ( 'M12 WASHER', 'M12 WASHER', '', ( #49 ) ) ;
#25 = EDGE_LOOP ( 'NONE', ( #1, #261, #181, #312 ) ) ;
#26 = ADVANCED_BREP_SHAPE_REPRESENTATION ( 'M12 WASHER', ( #342, #291 ), #118 ) ;
#27 = CARTESIAN_POINT ( 'NONE',  ( 6.499999999999999112, 7.960204194457794491E-16, 2.299999999999999822 ) ) ;
#28 = AXIS2_PLACEMENT_3D ( 'NONE', #77, #141, #212 ) ;
#29 = EDGE_LOOP ( 'NONE', ( #146, #203, #339, #158 ) ) ;
#30 = AXIS2_PLACEMENT_3D ( 'NONE', #329, #302, #363 ) ;
#31 = EDGE_CURVE ( 'NONE', #86, #413, #40, .T. ) ;
#32 = CYLINDRICAL_SURFACE ( 'NONE', #366, 6.499999999999999112 ) ;
#33 = DIRECTION ( 'NONE',  ( 1.000000000000000000, 0.0000000000000000000, 0.0000000000000000000 ) ) ;
#34 = VERTEX_POINT ( 'NONE', #27 ) ;
#35 = DIRECTION ( 'NONE',  ( 0.0000000000000000000, 0.0000000000000000000, 1.000000000000000000 ) ) ;
#36 = DIRECTION ( 'NONE',  ( -0.0000000000000000000, -0.0000000000000000000, -1.000000000000000000 ) ) ;
#37 = EDGE_CURVE ( 'NONE', #287, #121, #120, .T. ) ;
#38 = ORIENTED_EDGE ( 'NONE', *, *, #37, .T. ) ;
#39 = CARTESIAN_POINT ( 'NONE',  ( 0.0000000000000000000, 0.0000000000000000000, 0.2000000000000000944 ) ) ;
#40 = CIRCLE ( 'NONE', #119, 0.2000000000000000111 ) ;
#41 = ORIENTED_EDGE ( 'NONE', *, *, #416, .F. ) ;
#42 = DIRECTION ( 'NONE',  ( 1.000000000000000000, 0.0000000000000000000, 0.0000000000000000000 ) ) ;
#43 = APPLICATION_PROTOCOL_DEFINITION ( 'draft international standard', 'automotive_design', 1998, #278 ) ;
#44 = CARTESIAN_POINT ( 'NONE',  ( 0.0000000000000000000, 0.0000000000000000000, 0.2000000000000000944 ) ) ;
#45 = LINE ( 'NONE', #362, #396 ) ;
#46 = CARTESIAN_POINT ( 'NONE',  ( 0.0000000000000000000, 0.0000000000000000000, 2.500000000000000000 ) ) ;
#47 = ORIENTED_EDGE ( 'NONE', *, *, #66, .F. ) ;
#48 = FACE_OUTER_BOUND ( 'NONE', #414, .T. ) ;
#49 = PRODUCT_CONTEXT ( 'NONE', #278, 'mechanical' ) ;
#50 = AXIS2_PLACEMENT_3D ( 'NONE', #39, #271, #72 ) ;
#51 = FACE_BOUND ( 'NONE', #94, .T. ) ;
#52 = AXIS2_PLACEMENT_3D ( 'NONE', #403, #14, #42 ) ;
#53 = TOROIDAL_SURFACE ( 'NONE', #388, 6.699999999999998401, 0.2000000000000000111 ) ;
#54 = EDGE_CURVE ( 'NONE', #86, #277, #320, .T. ) ;
#55 = VERTEX_POINT ( 'NONE', #290 ) ;
#56 = CIRCLE ( 'NONE', #172, 0.1999999999999996503 ) ;
#57 = AXIS2_PLACEMENT_3D ( 'NONE', #202, #393, #165 ) ;
#58 = CYLINDRICAL_SURFACE ( 'NONE', #402, 12.00000000000000178 ) ;
#59 = CARTESIAN_POINT ( 'NONE',  ( -6.699999999999998401, 8.205133554287264590E-16, 2.500000000000000000 ) ) ;
#60 = DIRECTION ( 'NONE',  ( 0.0000000000000000000, 0.0000000000000000000, -1.000000000000000000 ) ) ;
#61 = ORIENTED_EDGE ( 'NONE', *, *, #91, .F. ) ;
#62 = DIRECTION ( 'NONE',  ( 0.0000000000000000000, 0.0000000000000000000, 1.000000000000000000 ) ) ;
#63 = CARTESIAN_POINT ( 'NONE',  ( 0.0000000000000000000, 0.0000000000000000000, 2.500000000000000000 ) ) ;
#64 = CARTESIAN_POINT ( 'NONE',  ( 0.0000000000000000000, 0.0000000000000000000, 0.0000000000000000000 ) ) ;
#65 = CARTESIAN_POINT ( 'NONE',  ( 6.499999999999999112, 7.960204194457794491E-16, 0.2000000000000000944 ) ) ;
#66 = EDGE_CURVE ( 'NONE', #287, #20, #400, .T. ) ;
#67 = CARTESIAN_POINT ( 'NONE',  ( 11.80000000000000071, 0.0000000000000000000, 2.500000000000000000 ) ) ;
#68 = DIRECTION ( 'NONE',  ( 1.000000000000000000, 0.0000000000000000000, 0.0000000000000000000 ) ) ;
#69 = ORIENTED_EDGE ( 'NONE', *, *, #405, .T. ) ;
#70 = CARTESIAN_POINT ( 'NONE',  ( -11.80000000000000071, 1.457329690985350393E-15, 2.500000000000000000 ) ) ;
#71 = AXIS2_PLACEMENT_3D ( 'NONE', #371, #144, #335 ) ;
#72 = DIRECTION ( 'NONE',  ( 1.000000000000000000, 0.0000000000000000000, 0.0000000000000000000 ) ) ;
#73 = AXIS2_PLACEMENT_3D ( 'NONE', #140, #327, #101 ) ;
#74 = EDGE_CURVE ( 'NONE', #20, #179, #370, .T. ) ;
#75 = FILL_AREA_STYLE_COLOUR ( '', #391 ) ;
#76 = ORIENTED_EDGE ( 'NONE', *, *, #211, .F. ) ;
#77 = CARTESIAN_POINT ( 'NONE',  ( 0.0000000000000000000, 0.0000000000000000000, 2.500000000000000000 ) ) ;
#78 = ORIENTED_EDGE ( 'NONE', *, *, #162, .T. ) ;
#79 = DIRECTION ( 'NONE',  ( 0.0000000000000000000, 0.0000000000000000000, 1.000000000000000000 ) ) ;
#80 = AXIS2_PLACEMENT_3D ( 'NONE', #324, #93, #293 ) ;
#81 = CARTESIAN_POINT ( 'NONE',  ( -11.80000000000000071, 1.457329690985350393E-15, 0.0000000000000000000 ) ) ;
#82 = EDGE_LOOP ( 'NONE', ( #129, #76, #323, #419 ) ) ;
#83 = EDGE_CURVE ( 'NONE', #277, #55, #274, .T. ) ;
#84 = CIRCLE ( 'NONE', #71, 6.499999999999999112 ) ;
#85 = ORIENTED_EDGE ( 'NONE', *, *, #227, .T. ) ;
#86 = VERTEX_POINT ( 'NONE', #351 ) ;
#87 = EDGE_CURVE ( 'NONE', #277, #86, #21, .T. ) ;
#88 = DIRECTION ( 'NONE',  ( -0.0000000000000000000, -0.0000000000000000000, -1.000000000000000000 ) ) ;
#89 = AXIS2_PLACEMENT_3D ( 'NONE', #330, #334, #215 ) ;
#90 = ORIENTED_EDGE ( 'NONE', *, *, #54, .T. ) ;
#91 = EDGE_CURVE ( 'NONE', #55, #413, #378, .T. ) ;
#92 = CARTESIAN_POINT ( 'NONE',  ( 0.0000000000000000000, 0.0000000000000000000, 2.500000000000000000 ) ) ;
#93 = DIRECTION ( 'NONE',  ( 0.0000000000000000000, 0.0000000000000000000, 1.000000000000000000 ) ) ;
#94 = EDGE_LOOP ( 'NONE', ( #247, #85 ) ) ;
#95 = DIRECTION ( 'NONE',  ( 1.000000000000000000, 0.0000000000000000000, 0.0000000000000000000 ) ) ;
#96 = DIRECTION ( 'NONE',  ( 1.000000000000000000, 0.0000000000000000000, 0.0000000000000000000 ) ) ;
#97 = AXIS2_PLACEMENT_3D ( 'NONE', #233, #62, #128 ) ;
#98 = CARTESIAN_POINT ( 'NONE',  ( 0.0000000000000000000, 0.0000000000000000000, 2.299999999999999822 ) ) ;
#99 = AXIS2_PLACEMENT_3D ( 'NONE', #238, #2, #205 ) ;
#100 = AXIS2_PLACEMENT_3D ( 'NONE', #64, #297, #95 ) ;
#101 = DIRECTION ( 'NONE',  ( 1.000000000000000000, 0.0000000000000000000, 0.0000000000000000000 ) ) ;
#102 = ADVANCED_FACE ( 'NONE', ( #345 ), #32, .F. ) ;
#103 = VECTOR ( 'NONE', #17, 1000.000000000000000 ) ;
#104 = VERTEX_POINT ( 'NONE', #216 ) ;
#105 = ADVANCED_FACE ( 'NONE', ( #159 ), #230, .T. ) ;
#106 = ORIENTED_EDGE ( 'NONE', *, *, #381, .T. ) ;
#107 = AXIS2_PLACEMENT_3D ( 'NONE', #63, #266, #33 ) ;
#108 =( LENGTH_UNIT ( ) NAMED_UNIT ( * ) SI_UNIT ( .MILLI., .METRE. ) );
#109 = ADVANCED_FACE ( 'NONE', ( #201 ), #53, .T. ) ;
#110 = CARTESIAN_POINT ( 'NONE',  ( 0.0000000000000000000, 0.0000000000000000000, 2.500000000000000000 ) ) ;
#111 = VERTEX_POINT ( 'NONE', #180 ) ;
#112 = CIRCLE ( 'NONE', #364, 11.80000000000000071 ) ;
#113 = ADVANCED_FACE ( 'NONE', ( #260 ), #406, .T. ) ;
#114 = AXIS2_PLACEMENT_3D ( 'NONE', #389, #231, #418 ) ;
#115 = DIRECTION ( 'NONE',  ( -0.0000000000000000000, -0.0000000000000000000, -1.000000000000000000 ) ) ;
#116 = CARTESIAN_POINT ( 'NONE',  ( 6.699999999999998401, 0.0000000000000000000, 4.065758146820641628E-17 ) ) ;
#117 = ORIENTED_EDGE ( 'NONE', *, *, #184, .T. ) ;
#118 =( GEOMETRIC_REPRESENTATION_CONTEXT ( 3 ) GLOBAL_UNCERTAINTY_ASSIGNED_CONTEXT ( ( #357 ) ) GLOBAL_UNIT_ASSIGNED_CONTEXT ( ( #108, #13, #147 ) ) REPRESENTATION_CONTEXT ( 'NONE', 'WORKASPACE' ) );
#119 = AXIS2_PLACEMENT_3D ( 'NONE', #288, #292, #60 ) ;
#120 = CIRCLE ( 'NONE', #421, 0.2000000000000005107 ) ;
#121 = VERTEX_POINT ( 'NONE', #70 ) ;
#122 = CARTESIAN_POINT ( 'NONE',  ( 0.0000000000000000000, 0.0000000000000000000, 2.299999999999999822 ) ) ;
#123 = AXIS2_PLACEMENT_3D ( 'NONE', #98, #6, #68 ) ;
#124 = SURFACE_STYLE_FILL_AREA ( #374 ) ;
#125 = AXIS2_PLACEMENT_3D ( 'NONE', #361, #169, #213 ) ;
#126 = CARTESIAN_POINT ( 'NONE',  ( -11.80000000000000071, 1.445083222993876839E-15, 2.299999999999999822 ) ) ;
#127 = DIRECTION ( 'NONE',  ( 1.000000000000000000, 0.0000000000000000000, -0.0000000000000000000 ) ) ;
#128 = DIRECTION ( 'NONE',  ( 1.000000000000000000, 0.0000000000000000000, 0.0000000000000000000 ) ) ;
#129 = ORIENTED_EDGE ( 'NONE', *, *, #162, .F. ) ;
#130 = FACE_OUTER_BOUND ( 'NONE', #373, .T. ) ;
#131 = DIRECTION ( 'NONE',  ( -1.000000000000000000, 0.0000000000000000000, 0.0000000000000000000 ) ) ;
#132 = DIRECTION ( 'NONE',  ( 1.000000000000000000, 0.0000000000000000000, 0.0000000000000000000 ) ) ;
#133 = ORIENTED_EDGE ( 'NONE', *, *, #143, .T. ) ;
#134 = CARTESIAN_POINT ( 'NONE',  ( 0.0000000000000000000, 0.0000000000000000000, 2.500000000000000000 ) ) ;
#135 = CARTESIAN_POINT ( 'NONE',  ( 0.0000000000000000000, 0.0000000000000000000, 2.299999999999999822 ) ) ;
#136 = EDGE_CURVE ( 'NONE', #197, #272, #239, .T. ) ;
#137 = FACE_OUTER_BOUND ( 'NONE', #268, .T. ) ;
#138 = ORIENTED_EDGE ( 'NONE', *, *, #221, .F. ) ;
#139 = ADVANCED_FACE ( 'NONE', ( #311 ), #384, .T. ) ;
#140 = CARTESIAN_POINT ( 'NONE',  ( 0.0000000000000000000, 0.0000000000000000000, 2.299999999999999822 ) ) ;
#141 = DIRECTION ( 'NONE',  ( 0.0000000000000000000, 0.0000000000000000000, 1.000000000000000000 ) ) ;
#142 = ADVANCED_FACE ( 'NONE', ( #251 ), #337, .T. ) ;
#143 = EDGE_CURVE ( 'NONE', #20, #413, #316, .T. ) ;
#144 = DIRECTION ( 'NONE',  ( 0.0000000000000000000, 0.0000000000000000000, 1.000000000000000000 ) ) ;
#145 = ADVANCED_FACE ( 'NONE', ( #137 ), #58, .T. ) ;
#146 = ORIENTED_EDGE ( 'NONE', *, *, #143, .F. ) ;
#147 =( NAMED_UNIT ( * ) SI_UNIT ( $, .STERADIAN. ) SOLID_ANGLE_UNIT ( ) );
#148 = DIRECTION ( 'NONE',  ( 1.000000000000000000, 0.0000000000000000000, 0.0000000000000000000 ) ) ;
#149 =( NAMED_UNIT ( * ) SI_UNIT ( $, .STERADIAN. ) SOLID_ANGLE_UNIT ( ) );
#150 = ORIENTED_EDGE ( 'NONE', *, *, #31, .T. ) ;
#151 =( LENGTH_UNIT ( ) NAMED_UNIT ( * ) SI_UNIT ( .MILLI., .METRE. ) );
#152 = UNCERTAINTY_MEASURE_WITH_UNIT (LENGTH_MEASURE( 1.000000000000000082E-05 ), #258, 'distance_accuracy_value', 'NONE');
#153 = DIRECTION ( 'NONE',  ( 1.224646799147353207E-16, 1.000000000000000000, -0.0000000000000000000 ) ) ;
#154 = AXIS2_PLACEMENT_3D ( 'NONE', #235, #36, #355 ) ;
#155 = AXIS2_PLACEMENT_3D ( 'NONE', #385, #195, #395 ) ;
#156 = EDGE_LOOP ( 'NONE', ( #163, #298, #150, #61 ) ) ;
#157 = EDGE_CURVE ( 'NONE', #34, #197, #45, .T. ) ;
#158 = ORIENTED_EDGE ( 'NONE', *, *, #91, .T. ) ;
#159 = FACE_OUTER_BOUND ( 'NONE', #301, .T. ) ;
#160 = STYLED_ITEM ( 'NONE', ( #225 ), #26 ) ;
#161 = DIRECTION ( 'NONE',  ( -1.000000000000000000, 1.224646799147353207E-16, 0.0000000000000000000 ) ) ;
#162 = EDGE_CURVE ( 'NONE', #12, #265, #415, .T. ) ;
#163 = ORIENTED_EDGE ( 'NONE', *, *, #83, .F. ) ;
#164 = PLANE ( 'NONE',  #192 ) ;
#165 = DIRECTION ( 'NONE',  ( 1.000000000000000000, 0.0000000000000000000, 0.0000000000000000000 ) ) ;
#166 = EDGE_LOOP ( 'NONE', ( #90, #294 ) ) ;
#167 = CARTESIAN_POINT ( 'NONE',  ( 0.0000000000000000000, 0.0000000000000000000, 2.299999999999999822 ) ) ;
#168 = CARTESIAN_POINT ( 'NONE',  ( 0.0000000000000000000, 0.0000000000000000000, 2.500000000000000000 ) ) ;
#169 = DIRECTION ( 'NONE',  ( 0.0000000000000000000, 0.0000000000000000000, 1.000000000000000000 ) ) ;
#170 = ORIENTED_EDGE ( 'NONE', *, *, #211, .T. ) ;
#171 = DIRECTION ( 'NONE',  ( -0.0000000000000000000, -0.0000000000000000000, -1.000000000000000000 ) ) ;
#172 = AXIS2_PLACEMENT_3D ( 'NONE', #407, #153, #375 ) ;
#173 = CLOSED_SHELL ( 'NONE', ( #105, #113, #356, #304, #102, #145, #369, #246, #241, #248, #109, #139, #244, #142 ) ) ;
#174 = DIRECTION ( 'NONE',  ( 0.0000000000000000000, 0.0000000000000000000, -1.000000000000000000 ) ) ;
#175 = AXIS2_PLACEMENT_3D ( 'NONE', #122, #349, #193 ) ;
#176 = DIRECTION ( 'NONE',  ( 0.0000000000000000000, 0.0000000000000000000, 1.000000000000000000 ) ) ;
#177 = VECTOR ( 'NONE', #115, 1000.000000000000000 ) ;
#178 = DIRECTION ( 'NONE',  ( -0.0000000000000000000, -0.0000000000000000000, -1.000000000000000000 ) ) ;
#179 = VERTEX_POINT ( 'NONE', #67 ) ;
#180 = CARTESIAN_POINT ( 'NONE',  ( -6.499999999999999112, 0.0000000000000000000, 0.2000000000000000944 ) ) ;
#181 = ORIENTED_EDGE ( 'NONE', *, *, #136, .T. ) ;
#182 = CIRCLE ( 'NONE', #185, 6.699999999999998401 ) ;
#183 = SURFACE_SIDE_STYLE ('',( #124 ) ) ;
#184 = EDGE_CURVE ( 'NONE', #265, #34, #198, .T. ) ;
#185 = AXIS2_PLACEMENT_3D ( 'NONE', #267, #35, #237 ) ;
#186 = PRESENTATION_LAYER_ASSIGNMENT (  '', '', ( #160 ) ) ;
#187 = ORIENTED_EDGE ( 'NONE', *, *, #257, .F. ) ;
#188 = EDGE_CURVE ( 'NONE', #272, #409, #182, .T. ) ;
#189 = DIRECTION ( 'NONE',  ( 0.0000000000000000000, 0.0000000000000000000, 1.000000000000000000 ) ) ;
#190 = ORIENTED_EDGE ( 'NONE', *, *, #354, .T. ) ;
#191 = UNCERTAINTY_MEASURE_WITH_UNIT (LENGTH_MEASURE( 1.000000000000000082E-05 ), #151, 'distance_accuracy_value', 'NONE');
#192 = AXIS2_PLACEMENT_3D ( 'NONE', #200, #420, #127 ) ;
#193 = DIRECTION ( 'NONE',  ( 1.000000000000000000, 0.0000000000000000000, 0.0000000000000000000 ) ) ;
#194 = EDGE_CURVE ( 'NONE', #179, #121, #3, .T. ) ;
#195 = DIRECTION ( 'NONE',  ( 0.0000000000000000000, -1.000000000000000000, 0.0000000000000000000 ) ) ;
#196 = COLOUR_RGB ( '',0.7921568627450980005, 0.8196078431372548767, 0.9333333333333333481 ) ;
#197 = VERTEX_POINT ( 'NONE', #65 ) ;
#198 = CIRCLE ( 'NONE', #377, 6.499999999999999112 ) ;
#199 = FACE_OUTER_BOUND ( 'NONE', #166, .T. ) ;
#200 = CARTESIAN_POINT ( 'NONE',  ( 0.0000000000000000000, 0.0000000000000000000, 0.0000000000000000000 ) ) ;
#201 = FACE_OUTER_BOUND ( 'NONE', #25, .T. ) ;
#202 = CARTESIAN_POINT ( 'NONE',  ( 0.0000000000000000000, 0.0000000000000000000, 0.2000000000000000944 ) ) ;
#203 = ORIENTED_EDGE ( 'NONE', *, *, #19, .T. ) ;
#204 = PRODUCT_DEFINITION_SHAPE ( 'NONE', 'NONE',  #314 ) ;
#205 = DIRECTION ( 'NONE',  ( -1.000000000000000000, 1.224646799147353454E-16, 0.0000000000000000000 ) ) ;
#206 = DIRECTION ( 'NONE',  ( -0.0000000000000000000, -0.0000000000000000000, -1.000000000000000000 ) ) ;
#207 = CARTESIAN_POINT ( 'NONE',  ( 6.699999999999998401, 0.0000000000000000000, 0.2000000000000000944 ) ) ;
#208 = CIRCLE ( 'NONE', #57, 6.499999999999999112 ) ;
#209 = CARTESIAN_POINT ( 'NONE',  ( 0.0000000000000000000, 0.0000000000000000000, 0.2000000000000000944 ) ) ;
#210 = MECHANICAL_DESIGN_GEOMETRIC_PRESENTATION_REPRESENTATION (  '', ( #160 ), #229 ) ;
#211 = EDGE_CURVE ( 'NONE', #104, #12, #340, .T. ) ;
#212 = DIRECTION ( 'NONE',  ( 1.000000000000000000, 0.0000000000000000000, -0.0000000000000000000 ) ) ;
#213 = DIRECTION ( 'NONE',  ( 1.000000000000000000, 0.0000000000000000000, 0.0000000000000000000 ) ) ;
#214 = ORIENTED_EDGE ( 'NONE', *, *, #83, .T. ) ;
#215 = DIRECTION ( 'NONE',  ( 0.0000000000000000000, 0.0000000000000000000, -1.000000000000000000 ) ) ;
#216 = CARTESIAN_POINT ( 'NONE',  ( 6.699999999999998401, 0.0000000000000000000, 2.500000000000000000 ) ) ;
#217 = CARTESIAN_POINT ( 'NONE',  ( -12.00000000000000178, 0.0000000000000000000, 2.500000000000000000 ) ) ;
#218 = AXIS2_PLACEMENT_3D ( 'NONE', #46, #280, #18 ) ;
#219 = ORIENTED_EDGE ( 'NONE', *, *, #310, .F. ) ;
#220 = DIRECTION ( 'NONE',  ( 1.000000000000000000, 0.0000000000000000000, 0.0000000000000000000 ) ) ;
#221 = EDGE_CURVE ( 'NONE', #111, #197, #208, .T. ) ;
#222 = ORIENTED_EDGE ( 'NONE', *, *, #397, .F. ) ;
#223 = CIRCLE ( 'NONE', #283, 12.00000000000000178 ) ;
#224 = FILL_AREA_STYLE ('',( #75 ) ) ;
#225 = PRESENTATION_STYLE_ASSIGNMENT (( #252 ) ) ;
#226 = ORIENTED_EDGE ( 'NONE', *, *, #273, .T. ) ;
#227 = EDGE_CURVE ( 'NONE', #409, #272, #285, .T. ) ;
#228 = ORIENTED_EDGE ( 'NONE', *, *, #221, .T. ) ;
#229 =( GEOMETRIC_REPRESENTATION_CONTEXT ( 3 ) GLOBAL_UNCERTAINTY_ASSIGNED_CONTEXT ( ( #152 ) ) GLOBAL_UNIT_ASSIGNED_CONTEXT ( ( #258, #286, #22 ) ) REPRESENTATION_CONTEXT ( 'NONE', 'WORKASPACE' ) );
#230 = TOROIDAL_SURFACE ( 'NONE', #52, 6.699999999999998401, 0.2000000000000000111 ) ;
#231 = DIRECTION ( 'NONE',  ( -0.0000000000000000000, -0.0000000000000000000, -1.000000000000000000 ) ) ;
#232 = CARTESIAN_POINT ( 'NONE',  ( -11.80000000000000071, 1.445083222993876839E-15, 0.2000000000000000944 ) ) ;
#233 = CARTESIAN_POINT ( 'NONE',  ( 0.0000000000000000000, 0.0000000000000000000, 2.299999999999999822 ) ) ;
#234 = ORIENTED_EDGE ( 'NONE', *, *, #31, .F. ) ;
#235 = CARTESIAN_POINT ( 'NONE',  ( 0.0000000000000000000, 0.0000000000000000000, 2.500000000000000000 ) ) ;
#236 = DIRECTION ( 'NONE',  ( -0.0000000000000000000, -0.0000000000000000000, -1.000000000000000000 ) ) ;
#237 = DIRECTION ( 'NONE',  ( 1.000000000000000000, 0.0000000000000000000, 0.0000000000000000000 ) ) ;
#238 = CARTESIAN_POINT ( 'NONE',  ( -6.699999999999998401, 8.205133554287264590E-16, 2.299999999999999822 ) ) ;
#239 = CIRCLE ( 'NONE', #10, 0.2000000000000000111 ) ;
#240 = DIRECTION ( 'NONE',  ( -0.0000000000000000000, -0.0000000000000000000, -1.000000000000000000 ) ) ;
#241 = ADVANCED_FACE ( 'NONE', ( #326 ), #303, .T. ) ;
#242 = AXIS2_PLACEMENT_3D ( 'NONE', #92, #8, #322 ) ;
#243 = ORIENTED_EDGE ( 'NONE', *, *, #354, .F. ) ;
#244 = ADVANCED_FACE ( 'NONE', ( #48 ), #387, .T. ) ;
#245 = PLANE ( 'NONE',  #28 ) ;
#246 = ADVANCED_FACE ( 'NONE', ( #51, #199 ), #164, .F. ) ;
#247 = ORIENTED_EDGE ( 'NONE', *, *, #188, .T. ) ;
#248 = ADVANCED_FACE ( 'NONE', ( #313 ), #318, .F. ) ;
#249 = CARTESIAN_POINT ( 'NONE',  ( -6.499999999999999112, 0.0000000000000000000, 2.299999999999999822 ) ) ;
#250 = DIRECTION ( 'NONE',  ( 1.000000000000000000, 0.0000000000000000000, 0.0000000000000000000 ) ) ;
#251 = FACE_OUTER_BOUND ( 'NONE', #82, .T. ) ;
#252 = SURFACE_STYLE_USAGE ( .BOTH. , #367 ) ;
#253 = FILL_AREA_STYLE_COLOUR ( '', #196 ) ;
#254 = ORIENTED_EDGE ( 'NONE', *, *, #37, .F. ) ;
#255 = APPLICATION_PROTOCOL_DEFINITION ( 'draft international standard', 'automotive_design', 1998, #383 ) ;
#256 = ORIENTED_EDGE ( 'NONE', *, *, #194, .F. ) ;
#257 = EDGE_CURVE ( 'NONE', #12, #104, #394, .T. ) ;
#258 =( LENGTH_UNIT ( ) NAMED_UNIT ( * ) SI_UNIT ( .MILLI., .METRE. ) );
#259 = PRODUCT_DEFINITION_CONTEXT ( 'detailed design', #383, 'design' ) ;
#260 = FACE_OUTER_BOUND ( 'NONE', #307, .T. ) ;
#261 = ORIENTED_EDGE ( 'NONE', *, *, #381, .F. ) ;
#262 = ORIENTED_EDGE ( 'NONE', *, *, #136, .F. ) ;
#263 = STYLED_ITEM ( 'NONE', ( #399 ), #342 ) ;
#264 = FACE_BOUND ( 'NONE', #284, .T. ) ;
#265 = VERTEX_POINT ( 'NONE', #249 ) ;
#266 = DIRECTION ( 'NONE',  ( -0.0000000000000000000, -0.0000000000000000000, -1.000000000000000000 ) ) ;
#267 = CARTESIAN_POINT ( 'NONE',  ( 0.0000000000000000000, 0.0000000000000000000, 0.0000000000000000000 ) ) ;
#268 = EDGE_LOOP ( 'NONE', ( #350, #133, #382, #219 ) ) ;
#269 = CARTESIAN_POINT ( 'NONE',  ( 0.0000000000000000000, 0.0000000000000000000, 2.500000000000000000 ) ) ;
#270 = VECTOR ( 'NONE', #206, 1000.000000000000000 ) ;
#271 = DIRECTION ( 'NONE',  ( 0.0000000000000000000, 0.0000000000000000000, 1.000000000000000000 ) ) ;
#272 = VERTEX_POINT ( 'NONE', #116 ) ;
#273 = EDGE_CURVE ( 'NONE', #111, #409, #56, .T. ) ;
#274 = CIRCLE ( 'NONE', #379, 0.2000000000000005107 ) ;
#275 = CARTESIAN_POINT ( 'NONE',  ( 0.0000000000000000000, 0.0000000000000000000, 0.2000000000000000944 ) ) ;
#276 = DIRECTION ( 'NONE',  ( 1.000000000000000000, 0.0000000000000000000, 0.0000000000000000000 ) ) ;
#277 = VERTEX_POINT ( 'NONE', #81 ) ;
#278 = APPLICATION_CONTEXT ( 'automotive_design' ) ;
#279 = DIRECTION ( 'NONE',  ( 1.000000000000000000, 0.0000000000000000000, 0.0000000000000000000 ) ) ;
#280 = DIRECTION ( 'NONE',  ( -0.0000000000000000000, -0.0000000000000000000, -1.000000000000000000 ) ) ;
#281 = AXIS2_PLACEMENT_3D ( 'NONE', #341, #309, #279 ) ;
#282 = LINE ( 'NONE', #217, #103 ) ;
#283 = AXIS2_PLACEMENT_3D ( 'NONE', #167, #88, #317 ) ;
#284 = EDGE_LOOP ( 'NONE', ( #170, #365 ) ) ;
#285 = CIRCLE ( 'NONE', #80, 6.699999999999998401 ) ;
#286 =( NAMED_UNIT ( * ) PLANE_ANGLE_UNIT ( ) SI_UNIT ( $, .RADIAN. ) );
#287 = VERTEX_POINT ( 'NONE', #353 ) ;
#288 = CARTESIAN_POINT ( 'NONE',  ( 11.80000000000000071, 0.0000000000000000000, 0.2000000000000000944 ) ) ;
#289 = EDGE_LOOP ( 'NONE', ( #117, #315, #106, #348 ) ) ;
#290 = CARTESIAN_POINT ( 'NONE',  ( -12.00000000000000178, 0.0000000000000000000, 0.2000000000000000944 ) ) ;
#291 = AXIS2_PLACEMENT_3D ( 'NONE', #305, #189, #220 ) ;
#292 = DIRECTION ( 'NONE',  ( 0.0000000000000000000, -1.000000000000000000, 0.0000000000000000000 ) ) ;
#293 = DIRECTION ( 'NONE',  ( 1.000000000000000000, 0.0000000000000000000, 0.0000000000000000000 ) ) ;
#294 = ORIENTED_EDGE ( 'NONE', *, *, #87, .T. ) ;
#295 = DIRECTION ( 'NONE',  ( 1.224646799147353207E-16, 1.000000000000000000, -0.0000000000000000000 ) ) ;
#296 = FACE_OUTER_BOUND ( 'NONE', #376, .T. ) ;
#297 = DIRECTION ( 'NONE',  ( -0.0000000000000000000, -0.0000000000000000000, -1.000000000000000000 ) ) ;
#298 = ORIENTED_EDGE ( 'NONE', *, *, #54, .F. ) ;
#299 = DIRECTION ( 'NONE',  ( -1.000000000000000000, 0.0000000000000000000, 0.0000000000000000000 ) ) ;
#300 = PRESENTATION_LAYER_ASSIGNMENT (  '', '', ( #263 ) ) ;
#301 = EDGE_LOOP ( 'NONE', ( #187, #78, #401, #41 ) ) ;
#302 = DIRECTION ( 'NONE',  ( 0.0000000000000000000, 0.0000000000000000000, 1.000000000000000000 ) ) ;
#303 = CYLINDRICAL_SURFACE ( 'NONE', #154, 12.00000000000000178 ) ;
#304 = ADVANCED_FACE ( 'NONE', ( #296 ), #408, .T. ) ;
#305 = CARTESIAN_POINT ( 'NONE',  ( 0.0000000000000000000, 0.0000000000000000000, 0.0000000000000000000 ) ) ;
#306 = SURFACE_STYLE_FILL_AREA ( #224 ) ;
#307 = EDGE_LOOP ( 'NONE', ( #47, #38, #256, #380 ) ) ;
#308 =( NAMED_UNIT ( * ) PLANE_ANGLE_UNIT ( ) SI_UNIT ( $, .RADIAN. ) );
#309 = DIRECTION ( 'NONE',  ( 0.0000000000000000000, 0.0000000000000000000, 1.000000000000000000 ) ) ;
#310 = EDGE_CURVE ( 'NONE', #287, #55, #282, .T. ) ;
#311 = FACE_OUTER_BOUND ( 'NONE', #156, .T. ) ;
#312 = ORIENTED_EDGE ( 'NONE', *, *, #227, .F. ) ;
#313 = FACE_OUTER_BOUND ( 'NONE', #333, .T. ) ;
#314 = PRODUCT_DEFINITION ( 'UNKNOWN', '', #332, #259 ) ;
#315 = ORIENTED_EDGE ( 'NONE', *, *, #157, .T. ) ;
#316 = LINE ( 'NONE', #4, #270 ) ;
#317 = DIRECTION ( 'NONE',  ( 1.000000000000000000, 0.0000000000000000000, 0.0000000000000000000 ) ) ;
#318 = CYLINDRICAL_SURFACE ( 'NONE', #242, 6.499999999999999112 ) ;
#319 = MECHANICAL_DESIGN_GEOMETRIC_PRESENTATION_REPRESENTATION (  '', ( #263 ), #344 ) ;
#320 = CIRCLE ( 'NONE', #114, 11.80000000000000071 ) ;
#321 = DIRECTION ( 'NONE',  ( 1.224646799147353207E-16, 1.000000000000000000, -0.0000000000000000000 ) ) ;
#322 = DIRECTION ( 'NONE',  ( -1.000000000000000000, 0.0000000000000000000, 0.0000000000000000000 ) ) ;
#323 = ORIENTED_EDGE ( 'NONE', *, *, #416, .T. ) ;
#324 = CARTESIAN_POINT ( 'NONE',  ( 0.0000000000000000000, 0.0000000000000000000, 0.0000000000000000000 ) ) ;
#325 = DIRECTION ( 'NONE',  ( 0.0000000000000000000, 0.0000000000000000000, 1.000000000000000000 ) ) ;
#326 = FACE_OUTER_BOUND ( 'NONE', #29, .T. ) ;
#327 = DIRECTION ( 'NONE',  ( 0.0000000000000000000, 0.0000000000000000000, 1.000000000000000000 ) ) ;
#328 = ORIENTED_EDGE ( 'NONE', *, *, #19, .F. ) ;
#329 = CARTESIAN_POINT ( 'NONE',  ( 0.0000000000000000000, 0.0000000000000000000, 0.2000000000000000944 ) ) ;
#330 = CARTESIAN_POINT ( 'NONE',  ( 6.699999999999998401, 0.0000000000000000000, 2.299999999999999822 ) ) ;
#331 = CIRCLE ( 'NONE', #7, 6.499999999999999112 ) ;
#332 = PRODUCT_DEFINITION_FORMATION_WITH_SPECIFIED_SOURCE ( 'ANY', '', #24, .NOT_KNOWN. ) ;
#333 = EDGE_LOOP ( 'NONE', ( #343, #69, #5, #228 ) ) ;
#334 = DIRECTION ( 'NONE',  ( 0.0000000000000000000, -1.000000000000000000, 0.0000000000000000000 ) ) ;
#335 = DIRECTION ( 'NONE',  ( 1.000000000000000000, 0.0000000000000000000, 0.0000000000000000000 ) ) ;
#336 = CARTESIAN_POINT ( 'NONE',  ( 12.00000000000000178, 1.469576158976824144E-15, 0.2000000000000000944 ) ) ;
#337 = TOROIDAL_SURFACE ( 'NONE', #123, 6.699999999999998401, 0.2000000000000000111 ) ;
#338 = SURFACE_STYLE_USAGE ( .BOTH. , #183 ) ;
#339 = ORIENTED_EDGE ( 'NONE', *, *, #310, .T. ) ;
#340 = CIRCLE ( 'NONE', #107, 6.699999999999998401 ) ;
#341 = CARTESIAN_POINT ( 'NONE',  ( 0.0000000000000000000, 0.0000000000000000000, 0.2000000000000000944 ) ) ;
#342 = MANIFOLD_SOLID_BREP ( 'Fillet1', #173 ) ;
#343 = ORIENTED_EDGE ( 'NONE', *, *, #157, .F. ) ;
#344 =( GEOMETRIC_REPRESENTATION_CONTEXT ( 3 ) GLOBAL_UNCERTAINTY_ASSIGNED_CONTEXT ( ( #191 ) ) GLOBAL_UNIT_ASSIGNED_CONTEXT ( ( #151, #308, #149 ) ) REPRESENTATION_CONTEXT ( 'NONE', 'WORKASPACE' ) );
#345 = FACE_OUTER_BOUND ( 'NONE', #289, .T. ) ;
#346 = LINE ( 'NONE', #372, #177 ) ;
#347 = EDGE_LOOP ( 'NONE', ( #359, #190 ) ) ;
#348 = ORIENTED_EDGE ( 'NONE', *, *, #360, .F. ) ;
#349 = DIRECTION ( 'NONE',  ( -0.0000000000000000000, -0.0000000000000000000, -1.000000000000000000 ) ) ;
#350 = ORIENTED_EDGE ( 'NONE', *, *, #66, .T. ) ;
#351 = CARTESIAN_POINT ( 'NONE',  ( 11.80000000000000071, 0.0000000000000000000, 0.0000000000000000000 ) ) ;
#352 = PRODUCT_RELATED_PRODUCT_CATEGORY ( 'part', '', ( #24 ) ) ;
#353 = CARTESIAN_POINT ( 'NONE',  ( -12.00000000000000178, 0.0000000000000000000, 2.299999999999999822 ) ) ;
#354 = EDGE_CURVE ( 'NONE', #121, #179, #112, .T. ) ;
#355 = DIRECTION ( 'NONE',  ( -1.000000000000000000, 0.0000000000000000000, 0.0000000000000000000 ) ) ;
#356 = ADVANCED_FACE ( 'NONE', ( #130 ), #11, .T. ) ;
#357 = UNCERTAINTY_MEASURE_WITH_UNIT (LENGTH_MEASURE( 1.000000000000000082E-05 ), #108, 'distance_accuracy_value', 'NONE');
#358 = DIRECTION ( 'NONE',  ( 0.0000000000000000000, 0.0000000000000000000, 1.000000000000000000 ) ) ;
#359 = ORIENTED_EDGE ( 'NONE', *, *, #194, .T. ) ;
#360 = EDGE_CURVE ( 'NONE', #265, #111, #346, .T. ) ;
#361 = CARTESIAN_POINT ( 'NONE',  ( 0.0000000000000000000, 0.0000000000000000000, 0.2000000000000000944 ) ) ;
#362 = CARTESIAN_POINT ( 'NONE',  ( 6.499999999999999112, 7.960204194457794491E-16, 2.500000000000000000 ) ) ;
#363 = DIRECTION ( 'NONE',  ( 1.000000000000000000, 0.0000000000000000000, 0.0000000000000000000 ) ) ;
#364 = AXIS2_PLACEMENT_3D ( 'NONE', #110, #15, #250 ) ;
#365 = ORIENTED_EDGE ( 'NONE', *, *, #257, .T. ) ;
#366 = AXIS2_PLACEMENT_3D ( 'NONE', #134, #236, #131 ) ;
#367 = SURFACE_SIDE_STYLE ('',( #306 ) ) ;
#368 = DIRECTION ( 'NONE',  ( 1.000000000000000000, 0.0000000000000000000, 0.0000000000000000000 ) ) ;
#369 = ADVANCED_FACE ( 'NONE', ( #9, #264 ), #245, .T. ) ;
#370 = CIRCLE ( 'NONE', #155, 0.2000000000000000944 ) ;
#371 = CARTESIAN_POINT ( 'NONE',  ( 0.0000000000000000000, 0.0000000000000000000, 2.299999999999999822 ) ) ;
#372 = CARTESIAN_POINT ( 'NONE',  ( -6.499999999999999112, 0.0000000000000000000, 2.500000000000000000 ) ) ;
#373 = EDGE_LOOP ( 'NONE', ( #16, #214, #222, #234 ) ) ;
#374 = FILL_AREA_STYLE ('',( #253 ) ) ;
#375 = DIRECTION ( 'NONE',  ( -1.000000000000000000, 1.224646799147353454E-16, 0.0000000000000000000 ) ) ;
#376 = EDGE_LOOP ( 'NONE', ( #138, #226, #392, #262 ) ) ;
#377 = AXIS2_PLACEMENT_3D ( 'NONE', #135, #325, #96 ) ;
#378 = CIRCLE ( 'NONE', #125, 12.00000000000000178 ) ;
#379 = AXIS2_PLACEMENT_3D ( 'NONE', #232, #295, #422 ) ;
#380 = ORIENTED_EDGE ( 'NONE', *, *, #74, .F. ) ;
#381 = EDGE_CURVE ( 'NONE', #197, #111, #331, .T. ) ;
#382 = ORIENTED_EDGE ( 'NONE', *, *, #397, .T. ) ;
#383 = APPLICATION_CONTEXT ( 'automotive_design' ) ;
#384 = TOROIDAL_SURFACE ( 'NONE', #30, 11.80000000000000071, 0.2000000000000000111 ) ;
#385 = CARTESIAN_POINT ( 'NONE',  ( 11.80000000000000071, 0.0000000000000000000, 2.299999999999999822 ) ) ;
#386 = ORIENTED_EDGE ( 'NONE', *, *, #74, .T. ) ;
#387 = TOROIDAL_SURFACE ( 'NONE', #97, 11.80000000000000071, 0.2000000000000000111 ) ;
#388 = AXIS2_PLACEMENT_3D ( 'NONE', #209, #176, #276 ) ;
#389 = CARTESIAN_POINT ( 'NONE',  ( 0.0000000000000000000, 0.0000000000000000000, 0.0000000000000000000 ) ) ;
#390 = CARTESIAN_POINT ( 'NONE',  ( 12.00000000000000178, 1.469576158976824144E-15, 2.299999999999999822 ) ) ;
#391 = COLOUR_RGB ( '',0.7921568627450980005, 0.8196078431372548767, 0.9333333333333333481 ) ;
#392 = ORIENTED_EDGE ( 'NONE', *, *, #188, .F. ) ;
#393 = DIRECTION ( 'NONE',  ( -0.0000000000000000000, -0.0000000000000000000, -1.000000000000000000 ) ) ;
#394 = CIRCLE ( 'NONE', #218, 6.699999999999998401 ) ;
#395 = DIRECTION ( 'NONE',  ( 0.0000000000000000000, 0.0000000000000000000, -1.000000000000000000 ) ) ;
#396 = VECTOR ( 'NONE', #171, 1000.000000000000000 ) ;
#397 = EDGE_CURVE ( 'NONE', #413, #55, #417, .T. ) ;
#398 = DIRECTION ( 'NONE',  ( 0.0000000000000000000, -1.000000000000000000, 0.0000000000000000000 ) ) ;
#399 = PRESENTATION_STYLE_ASSIGNMENT (( #338 ) ) ;
#400 = CIRCLE ( 'NONE', #175, 12.00000000000000178 ) ;
#401 = ORIENTED_EDGE ( 'NONE', *, *, #405, .F. ) ;
#402 = AXIS2_PLACEMENT_3D ( 'NONE', #269, #240, #299 ) ;
#403 = CARTESIAN_POINT ( 'NONE',  ( 0.0000000000000000000, 0.0000000000000000000, 2.299999999999999822 ) ) ;
#404 = CARTESIAN_POINT ( 'NONE',  ( -6.699999999999998401, 8.205133554287264590E-16, 4.065758146820641628E-17 ) ) ;
#405 = EDGE_CURVE ( 'NONE', #34, #265, #84, .T. ) ;
#406 = TOROIDAL_SURFACE ( 'NONE', #73, 11.80000000000000071, 0.2000000000000000111 ) ;
#407 = CARTESIAN_POINT ( 'NONE',  ( -6.699999999999998401, 8.205133554287264590E-16, 0.2000000000000000944 ) ) ;
#408 = TOROIDAL_SURFACE ( 'NONE', #281, 6.699999999999998401, 0.2000000000000000111 ) ;
#409 = VERTEX_POINT ( 'NONE', #404 ) ;
#410 = AXIS2_PLACEMENT_3D ( 'NONE', #44, #79, #148 ) ;
#411 = AXIS2_PLACEMENT_3D ( 'NONE', #168, #358, #132 ) ;
#412 = CIRCLE ( 'NONE', #89, 0.2000000000000000944 ) ;
#413 = VERTEX_POINT ( 'NONE', #336 ) ;
#414 = EDGE_LOOP ( 'NONE', ( #254, #328, #386, #243 ) ) ;
#415 = CIRCLE ( 'NONE', #99, 0.1999999999999996503 ) ;
#416 = EDGE_CURVE ( 'NONE', #104, #34, #412, .T. ) ;
#417 = CIRCLE ( 'NONE', #50, 12.00000000000000178 ) ;
#418 = DIRECTION ( 'NONE',  ( 1.000000000000000000, 0.0000000000000000000, 0.0000000000000000000 ) ) ;
#419 = ORIENTED_EDGE ( 'NONE', *, *, #184, .F. ) ;
#420 = DIRECTION ( 'NONE',  ( 0.0000000000000000000, 0.0000000000000000000, 1.000000000000000000 ) ) ;
#421 = AXIS2_PLACEMENT_3D ( 'NONE', #126, #321, #161 ) ;
#422 = DIRECTION ( 'NONE',  ( -1.000000000000000000, 1.224646799147353207E-16, 0.0000000000000000000 ) ) ;
ENDSEC;
END-ISO-10303-21;
